<?xml version="1.0" encoding="utf-8"?>
<!-- Generator: Adobe Illustrator 25.0.0, SVG Export Plug-In . SVG Version: 6.00 Build 0)  -->
<svg version="1.1" id="Layer_1" xmlns="http://www.w3.org/2000/svg" xmlns:xlink="http://www.w3.org/1999/xlink" x="0px" y="0px"
	 viewBox="0 0 500 500" style="enable-background:new 0 0 500 500;" xml:space="preserve">
<style type="text/css">
	.st0{fill:#E52528;}
	.st1{fill:#FFFFFF;}
	.st2{fill:#47AE4C;}
	.st3{fill:#EB5D60;}
	.st4{fill:#1C8C51;}
	.st5{fill:#67BB89;}
	.st6{fill:#515151;}
</style>
<g>
	<g>
		<g>
			<g>
				<g>
					<path class="st0" d="M486.33,222.4c0.01,0,0.03-0.01,0.04-0.01c0.01,0,0.02,0.01,0.02,0.02c0,0,0,0.01,0,0.01l0,0c0,0,0,0,0,0
						c0,0,0,0,0,0l0.03,0l-0.03,0l0,0c0,0,0.01,0,0.01,0l0.01,0c0.01,0,0.02-0.01,0.03-0.01l0.01-0.01l0.01,0c0,0,0-0.02,0-0.03
						l0.01-0.13c0.01-0.18,0.01-0.36,0.01-0.55c0-0.19-0.02-0.37-0.03-0.56c-0.02-0.19-0.06-0.37-0.1-0.56
						c-0.04-0.18-0.08-0.37-0.13-0.54c-0.02-0.09-0.05-0.18-0.07-0.26c-0.03-0.09-0.06-0.17-0.09-0.25
						c-0.13-0.33-0.26-0.63-0.39-0.89c-0.07-0.4-0.26-0.73-0.4-0.74c-0.14-0.01-0.2,0.31-0.12,0.7c0,0.09,0.01,0.19,0,0.26
						c-0.05,0.3-0.08,0.63-0.1,0.97c-0.02,0.35-0.04,0.71-0.04,1.1c0.02-0.15,0.04-0.31,0.06-0.46c0,0.22-0.01,0.44,0.02,0.68
						c0.02-0.03,0.04-0.06,0.06-0.09c-0.04,0.38-0.05,0.83,0.02,1.24c0.01,0.05,0.02,0.1,0.03,0.15l0,0.02l0,0
						c-0.19,0.01,1.67-0.09,0.88-0.05l0,0l0,0l0,0l0,0l-0.01,0l-0.01,0c-0.01,0,0.02,0,0.02,0l0.07,0c0.04,0,0.08,0,0.13,0
						c0.05,0,0.1,0.01,0.15,0.01c0.06,0.01,0.11,0.01,0.17,0.02c0.13,0.01,0.24,0.03,0.37,0.05c0.06,0.01,0.12,0.02,0.18,0.04
						c0.06,0.01,0.12,0.02,0.18,0.04c0.23,0.06,0.42,0.12,0.57,0.18c0.29,0.13,0.38,0.21,0.42,0.24c0.02,0.02,0.03,0.03,0.03,0.03
						c0,0,0,0-0.02-0.02c-0.02-0.02-0.04-0.04-0.09-0.07c-0.03-0.02-0.06-0.04-0.1-0.06c-0.04-0.02-0.1-0.06-0.15-0.08
						c-0.12-0.05-0.28-0.12-0.49-0.18c-0.1-0.03-0.22-0.06-0.34-0.08c-0.12-0.03-0.26-0.04-0.39-0.06
						c-0.07-0.01-0.16-0.02-0.22-0.02C486.47,222.41,486.4,222.41,486.33,222.4l-0.03,0.01c0,0,0,0,0,0l0.01,0
						C486.32,222.4,486.32,222.4,486.33,222.4z"/>
				</g>
			</g>
			<g>
				<g>
					<path class="st0" d="M487.01,220.99c-0.03,0.24-0.05,0.48-0.08,0.72c-0.01,0.12-0.03,0.23-0.04,0.35l-0.02,0.17l-0.01,0.09
						c0,0.01,0,0.04-0.01,0.04l-0.01,0.01c-0.02,0.01-0.03,0.02-0.05,0.02l0.21-0.01l-0.01,0c-0.01-0.01-0.02-0.02-0.03-0.03
						c0,0,0,0-0.01-0.01l-0.01-0.02l-0.02-0.04c-0.02-0.06-0.05-0.12-0.07-0.19c-0.04-0.13-0.09-0.28-0.12-0.43
						c-0.08-0.31-0.13-0.64-0.21-0.96l-0.06-0.23c-0.04-0.11-0.09-0.17-0.14-0.19c-0.11-0.04-0.18,0.17-0.15,0.47l0.03,0.34
						c-0.01,0.21-0.01,0.45-0.01,0.7c0,0.12,0.01,0.25,0.02,0.37c0.01,0.06,0.01,0.13,0.02,0.19l0,0.04l0,0c0,0,0,0,0,0.01
						c0,0,0,0,0.01,0c-0.01,0,0.04,0,0.11,0.01c0.07,0,0.14,0.01,0.21,0.02c0.08,0.01,0.15,0.01,0.23,0.03
						c0.31,0.04,0.63,0.11,0.88,0.2c0.25,0.08,0.43,0.18,0.54,0.25c0.03,0.03,0.05,0.03,0.07,0.05c0.02,0.01,0.04,0.04,0.05,0.05
						c0.01,0.01,0.02,0.02,0.03,0.03c0.01,0.01,0.02,0.02,0.02,0.02c0.02,0.03,0,0,0,0c0,0,0,0-0.02-0.02
						c-0.01-0.01-0.02-0.02-0.03-0.03c-0.02-0.02-0.05-0.05-0.08-0.07c-0.04-0.03-0.09-0.07-0.16-0.1
						c-0.04-0.02-0.07-0.04-0.11-0.06c-0.02-0.01-0.04-0.02-0.06-0.03c-0.02-0.01-0.05-0.02-0.07-0.03
						c-0.19-0.07-0.48-0.16-0.75-0.21c0.01,0-0.01-0.09-0.06-0.14l-0.02-0.02c-0.01-0.01-0.01-0.03-0.02-0.04
						c-0.02-0.03-0.03-0.06-0.05-0.08c-0.03-0.04-0.07-0.07-0.11-0.07c0-0.07,0.01-0.15,0.01-0.22c0.02,0.06,0.04,0.11,0.07,0.17
						c-0.13-0.11-0.2-0.5-0.29-0.78c-0.02-0.14-0.04-0.28-0.08-0.43c-0.1,0.09-0.2,0.18-0.3,0.27l0.06,0.22
						c0.01-0.02,0.03-0.05,0.03-0.05c0.06,0.21,0.12,0.41,0.19,0.62c0.03,0.1,0.06,0.21,0.09,0.32l0.02,0.08
						c0.01,0.02,0.01,0.02,0.01,0.03c0.01,0.01,0.02,0.02,0.02,0.03c0.01,0.01,0.02,0.02,0.03,0.02c0.01,0,0.01,0,0.01,0.01
						l0.14,0.02c0.27,0.04,0.55,0.1,0.79,0.18c0.19,0.06,0.26,0.1,0.25,0.1c-0.01,0-0.04-0.02-0.09-0.04
						c-0.05-0.02-0.13-0.04-0.24-0.08c-0.06-0.02-0.11-0.03-0.17-0.05c-0.06-0.02-0.12-0.03-0.18-0.04l-0.09-0.02l-0.08-0.02l0.02,0
						l-0.02,0c0,0,0,0,0,0l0.02,0l0.04,0.01c0.03,0.01,0.05,0.01,0.08,0.02l-0.15-0.03l0.01,0c0.01,0,0.01-0.01,0.02-0.01
						c0.01-0.02,0.02-0.04,0.03-0.06l0.01-0.04l0-0.02l0-0.01l0-0.03l0-0.23c0-0.31,0.01-0.63,0.02-0.93
						c0.01-0.1-0.02-0.21-0.06-0.26C487.05,220.85,487.01,220.89,487.01,220.99z"/>
				</g>
			</g>
			<g>
				<g>
					<g>
						<path class="st0" d="M487.56,222.61c0.25,0.08,0.48,0.17,0.67,0.29c0.03,0.02,0.04,0.03,0.05,0.03
							c0.01,0.01,0.02,0.01,0.02,0.02c-0.01-0.01-0.03-0.02-0.04-0.03c-0.02-0.02-0.04-0.03-0.07-0.05
							c-0.02-0.02-0.05-0.03-0.08-0.04c-0.03-0.02-0.06-0.04-0.1-0.05c-0.03-0.02-0.06-0.03-0.09-0.04
							c-0.03-0.02-0.06-0.03-0.09-0.04c-0.06-0.02-0.1-0.03-0.15-0.05C487.58,222.61,487.54,222.6,487.56,222.61z"/>
					</g>
				</g>
				<g>
					<g>
						<path class="st0" d="M488.29,222.95c0.02,0.02,0.04,0.04,0.05,0.05c0.01,0.01,0.01,0.01,0.01,0.01l-0.02-0.01l-0.02-0.02
							c-0.01-0.01-0.02-0.01-0.02-0.01S488.3,222.96,488.29,222.95z"/>
					</g>
				</g>
				<g>
					<g>
						<path class="st0" d="M475.59,199.45c-1.27-1.54-2.63-3.03-4.06-4.47c-0.05-0.05-0.1-0.08-0.12-0.07
							c-0.02,0.01,0.01,0.06,0.05,0.1c1.43,1.45,2.78,2.93,4.05,4.46c0.04,0.05,0.09,0.08,0.11,0.08
							C475.64,199.55,475.62,199.5,475.59,199.45z"/>
					</g>
				</g>
				<g>
					<g>
						<path class="st0" d="M466.06,187.47c0.05,0.02,0.06,0.01,0.03-0.04c-0.02-0.04-0.08-0.09-0.13-0.11
							c-0.04-0.02-0.06,0-0.03,0.04C465.96,187.4,466.02,187.45,466.06,187.47z"/>
					</g>
				</g>
				<g>
					<g>
						<path class="st0" d="M467.49,186.66c0.24,0.17,0.47,0.33,0.69,0.46c0.04,0.02,0.08,0.06,0.1,0.09
							c0.01-0.03,0.07-0.02,0.16,0.04c1.74,1.19,3.48,2.63,5.19,4.07c0.03-0.01,0.07,0,0.12,0.01c0.17,0.05,0.42,0.24,0.64,0.47
							l0.16,0.18c0.66,0.72,1.32,1.43,1.96,2.16c0.17,0.12,0.35,0.27,0.52,0.45c0.33,0.27,0.65,0.55,0.98,0.83
							c0.32,0.29,0.64,0.58,0.96,0.88c-0.02-0.05-0.02-0.1,0-0.11c0.07-0.03,0.24,0.08,0.39,0.26l0.24,0.27
							c-0.21-0.27-0.42-0.53-0.63-0.8c-0.03-0.04-0.06-0.07-0.08-0.11c-0.25-0.28-0.5-0.56-0.77-0.83
							c-2.32-2.41-4.78-4.39-7.26-6.25c-0.05-0.03-0.1-0.08-0.12-0.12c-0.01-0.03,0.01-0.04,0.06-0.01c1.68,1.06,3.24,1.9,4.99,3.32
							c2.08,1.68,4.06,3.46,5.97,5.48c0.47,0.55,0.91,1.11,1.36,1.65c0.22,0.28,0.44,0.55,0.67,0.82c0.22,0.27,0.45,0.55,0.66,0.83
							c0.22,0.28,0.44,0.56,0.65,0.84c0.21,0.29,0.43,0.57,0.64,0.86c0.11,0.14,0.21,0.29,0.32,0.44c0.1,0.15,0.21,0.3,0.31,0.45
							c0.21,0.3,0.42,0.6,0.63,0.91c1.13,1.68,2.09,3.41,2.93,5.2c0.83,1.79,1.53,3.64,2.08,5.58c0.24,0.72,0.33,1.44,0.35,2.01
							c0.01,0.28-0.03,0.53-0.07,0.72c-0.05,0.19-0.12,0.33-0.22,0.39c-0.23,0.15-0.52-0.14-0.8-0.7c0.03,0.12,0.04,0.23,0.06,0.35
							l0.05,0.57c0.02,0.27,0.03,0.52,0.02,0.74c-0.02,0.22-0.05,0.41-0.11,0.57l-0.12,0.41c-0.24,0.55-0.47,1.41-0.78,1.85
							l-0.14-0.08l-0.03,0.1c-0.03,0.16-0.08,0.29-0.13,0.44c-0.06,0.13-0.13,0.22-0.2,0.26l-0.16-0.04
							c-0.18-0.08-0.34-0.26-0.53-0.49c-0.07,0.01-0.14-0.01-0.2-0.07c-0.14,0.22-0.31,0.33-0.51,0.18
							c-0.04,0.13-0.11,0.11-0.16-0.04c-0.02-0.05-0.03-0.11-0.04-0.17c0,0,0,0,0,0c-0.04,0.07-0.05,0.09-0.08,0.19
							c0,0.06,0,0.11,0,0.14c0,0.03-0.01,0.04,0,0.04c-0.01,0.12-0.02,0.17-0.03,0.22c-0.01,0.05-0.02,0.1-0.05,0.17
							c-0.04,0.05-0.08,0.08-0.11,0.07c-0.01,0-0.01,0-0.02,0c0,0-0.01,0-0.01,0c0,0-0.01-0.01,0,0c0.03,0.02,0.05,0.02,0.05,0.02
							c0.03,0.01,0.06,0.03,0.08,0.05c0.02,0.01,0.04,0.02,0.06,0.03c0.03,0.02,0.07,0.05,0.09,0.06c0.04,0.02,0.06,0.05,0.07,0.06
							c0.02,0.02,0.01,0.01,0,0c-0.01-0.01-0.03-0.03-0.05-0.04c0.02,0.02,0.05,0.05,0.06,0.06c0.01,0.01,0.02,0.02,0.03,0.03
							c0.01,0.01,0.02,0.02,0.02,0.03c0,0,0.01,0.01,0.01,0.01c0,0,0-0.01,0-0.01c0,0-0.02-0.05-0.01-0.04c0-0.01,0-0.01,0-0.03
							c0,0,0,0,0-0.01c-0.07-0.44-0.12-0.81-0.16-1.06c0,0,0,0,0,0l0,0l0.16,1.07c0,0.04,0.01,0.07,0.02,0.07c0,0,0,0,0,0
							c0,0,0.01,0.01,0.01,0.01c0,0-0.01-0.02-0.01-0.02c-0.01-0.01-0.02-0.03-0.03-0.03c-0.01-0.01-0.02-0.01-0.02-0.02
							c-0.01-0.01-0.02-0.02-0.02-0.02c-0.06-0.05-0.15-0.11-0.22-0.14c-0.08-0.04-0.13-0.07-0.16-0.08
							c-0.08-0.04-0.08-0.04-0.08-0.04c-0.07-0.03-0.11-0.04-0.13-0.05c-0.02-0.01-0.02-0.01-0.02-0.01
							c-0.08-0.03-0.13-0.04-0.15-0.05c-0.02-0.01-0.02-0.01-0.02-0.01c0.1,0.03,0.1,0.03,0.1,0.03c-0.09-0.03-0.16-0.05-0.22-0.06
							c-0.05-0.01-0.08-0.02-0.1-0.03c0.01,0,0.01,0,0.01,0c0.08,0.02,0.14,0.04,0.19,0.05c0.06,0.02,0.1,0.03,0.13,0.04
							c0.05,0.02,0.05,0.02,0.05,0.02c-0.11-0.04-0.21-0.06-0.3-0.09c-0.04-0.01-0.09-0.02-0.12-0.03l0,0
							c0-0.01,0.01-0.01,0.01-0.02c0-0.01,0.01-0.02,0.01-0.05c0.01-0.05-0.01-0.11-0.01-0.11c-0.02,0.01-0.04,0.01-0.04,0.01
							c0.01-0.02,0-0.12,0-0.17c0-0.06,0-0.11,0-0.15c0-0.09,0-0.19,0-0.37c0.01-0.04,0.03-0.06,0.04-0.09
							c-0.02-0.03-0.04-0.1-0.04-0.18c0-0.07,0-0.13,0-0.19c0-0.01-0.01-0.03-0.01-0.04c0,0-0.01,0-0.01,0
							c-0.02-0.06-0.03-0.11-0.05-0.16c-0.01-0.03-0.01-0.03-0.01-0.03l0,0c-0.04-0.11-0.09-0.27-0.24-0.69
							c-0.01-0.11-0.01-0.22-0.01-0.32c-0.01,0.03-0.01,0.07-0.02,0.1c-0.01,0.06-0.08,0.02-0.09,0.05c-0.01,0.2-0.01,0.41,0,0.62
							c0,0.1,0,0.21,0.01,0.32c0,0.11,0,0.21,0,0.32c0,0.21,0,0.43,0,0.64l0,0.32c0,0.04,0,0.03,0,0.04c0,0.01,0,0.01-0.01,0.02
							c0,0.01-0.01,0.03-0.01,0.04c0,0.01,0,0.01,0,0.02c0,0,0,0-0.01,0l0,0l0,0c0,0,0,0,0,0l0.01,0c0.15,0.02,0.27,0.04,0.3,0.05
							c0.03,0.01-0.03-0.01-0.16-0.03c-0.06-0.01-0.13-0.02-0.22-0.03c-0.02,0-0.04,0-0.07-0.01l-0.03,0c-0.01,0,0,0-0.01,0
							c0,0,0,0,0,0c-0.02-0.01-0.04-0.03-0.06-0.04c0,0,0,0-0.01-0.01l-0.01-0.04l-0.02-0.08c-0.01-0.06-0.03-0.11-0.04-0.17
							c-0.05-0.22-0.1-0.45-0.14-0.68c-0.02-0.12-0.04-0.23-0.06-0.35c-0.02-0.12-0.04-0.23-0.07-0.35
							c-0.04-0.23-0.08-0.47-0.11-0.71c-0.03-0.24-0.07-0.48-0.11-0.71c-0.03-0.24-0.06-0.48-0.09-0.71
							c-0.06-0.47-0.13-0.94-0.16-1.39c-0.09-0.46-0.2-0.93-0.3-1.39c0,0.02-0.01,0.05-0.01,0.07c-0.02-0.12-0.05-0.24-0.07-0.37
							l-0.01-0.04c-0.01,0.1-0.02,0.2-0.02,0.3c0.01,0.06,0.02,0.13,0.03,0.19c0.26,1.08,0.34,2.08,0.41,3.13
							c0.02,0.28,0.03,0.54,0.03,0.8c-0.01,0.26-0.02,0.51-0.03,0.78c0.01,0.13-0.02,0.23-0.06,0.22c-0.05-0.01-0.1-0.13-0.11-0.26
							c-0.04-0.21-0.08-0.43-0.11-0.65c-0.04-0.22-0.09-0.44-0.13-0.67c-0.04-0.22-0.08-0.45-0.11-0.67
							c-0.04-0.22-0.09-0.45-0.12-0.67c-0.04-0.22-0.07-0.44-0.1-0.66c-0.04-0.22-0.07-0.43-0.1-0.64
							c-0.03-0.21-0.05-0.41-0.06-0.61c-0.02-0.2-0.04-0.39-0.05-0.57c-0.1-0.31-0.16-0.62-0.19-0.89l0-0.01
							c-0.01,0.07-0.01,0.14-0.02,0.22c-0.06-0.24-0.03-0.39-0.08-0.61c-0.03,0.04-0.06,0.08-0.1,0.12
							c-0.09-0.29-0.18-0.59-0.28-0.88c-0.11-0.29-0.22-0.59-0.33-0.88c-0.1-0.29-0.22-0.58-0.33-0.87
							c-0.11-0.29-0.2-0.57-0.28-0.85c-0.02-0.04-0.03-0.08-0.05-0.12c-0.15-0.2-0.31-0.41-0.45-0.62
							c-0.07-0.11-0.15-0.22-0.22-0.34c-0.08-0.12-0.15-0.24-0.22-0.36c0.08,0.18,0.17,0.36,0.24,0.54c-0.24-0.35-0.49-0.7-0.7-1.11
							c-0.14-0.27-0.3-0.55-0.43-0.83c-0.14-0.28-0.26-0.57-0.38-0.84c-0.23-0.54-0.38-1.05-0.43-1.41
							c-1.38-2.01-2.92-3.95-4.62-5.77c-0.09-0.09-0.14-0.2-0.13-0.24c0.02-0.03,0.11,0.01,0.19,0.1c1.28,1.26,2.47,2.63,3.57,4.05
							c-0.82-1.25-1.71-2.48-2.71-3.68c-0.13-0.15-0.27-0.3-0.4-0.44c-0.13-0.15-0.26-0.3-0.37-0.46c-1.32-1.5-2.62-2.9-4.16-4.28
							c-1.32-1.18-2.51-2.18-3.9-3.29c-1.95-1.56-3.78-2.94-5.66-4.57c-0.26-0.21-0.44-0.46-0.4-0.55c0.04-0.1,0.28,0,0.54,0.21
							c2.06,1.59,4.1,3.16,6.09,4.81c1.98,1.65,3.91,3.39,5.71,5.33c0.39,0.42,0.77,0.83,1.14,1.25c0.01-0.01,0.01-0.03,0.02-0.04
							c0.04-0.03,0.11-0.03,0.21,0.02c-0.42-0.48-0.84-0.96-1.26-1.45c-1.32-1.22-2.68-2.41-4.03-3.77
							c-0.93-0.94-1.73-1.83-2.57-2.72c-1.2-1-2.43-1.98-3.65-2.98c-0.05-0.04-0.09-0.09-0.1-0.12c0-0.03,0.03-0.02,0.09,0.02
							c0.91,0.63,1.8,1.3,2.7,1.99c-0.09-0.16-0.11-0.29-0.04-0.34c0.07-0.05,0.23-0.02,0.43,0.08l-0.57-0.51
							c-0.12-0.11-0.18-0.21-0.15-0.24c0.04-0.03,0.15,0.03,0.27,0.13c0.78,0.69,1.55,1.39,2.31,2.09c0.96,0.8,1.89,1.62,2.82,2.45
							c-0.08-0.16-0.12-0.3-0.11-0.39l0,0c-0.14-0.13-0.28-0.26-0.42-0.39c-2.74-2.25-5.56-4.52-8.28-6.95
							c-0.05-0.05-0.09-0.1-0.07-0.11c0.01-0.02,0.07,0.01,0.11,0.05c0.82,0.73,1.65,1.45,2.49,2.16c0,0,0,0,0,0
							c-0.02-0.04-0.01-0.06,0.03-0.04c0.04,0.02,0.11,0.08,0.13,0.11c0.03,0.04,0.01,0.06-0.03,0.04c1.56,1.32,3.13,2.61,4.68,3.87
							c-1.37-1.25-2.76-2.47-4.13-3.73c-0.17-0.12-0.34-0.23-0.51-0.35c-0.05-0.03-0.09-0.09-0.1-0.12c0-0.02,0.05-0.01,0.09,0.02
							l0.14,0.1c-0.26-0.24-0.4-0.48-0.32-0.55c0.09-0.06,0.38,0.08,0.65,0.32c0.75,0.63,1.49,1.27,2.22,1.91l0.25,0.2
							c0.09,0.06,0.18,0.12,0.27,0.18c-1.1-1.04-2.2-2.08-3.29-3.11c-0.1-0.08-0.16-0.18-0.14-0.21c0.02-0.03,0.13,0.02,0.22,0.1
							c2.1,1.64,4.19,3.35,6.21,5.15c0.38,0.25,0.76,0.5,1.15,0.75c0.38,0.26,0.76,0.52,1.15,0.78c-0.08-0.08-0.16-0.16-0.25-0.24
							c-2.12-2.06-4.3-3.42-6.49-5.23c-0.06-0.04-0.09-0.09-0.08-0.11c0.01-0.02,0.06,0,0.11,0.05c1.08,0.87,2.14,1.61,3.24,2.46
							c0.45,0.36,0.9,0.7,1.33,1.04c0.43,0.34,0.86,0.68,1.29,1.01c-1.6-1.48-3.29-2.75-4.96-4.11c-0.08-0.06-0.14-0.13-0.17-0.18
							c-0.01,0-0.03,0-0.06-0.02c-0.24-0.14-0.48-0.31-0.73-0.49c-0.05-0.03-0.1-0.08-0.11-0.12
							C467.39,186.61,467.43,186.62,467.49,186.66z M487.09,217.19c0,0.02-0.01,0.04-0.01,0.05c0-0.06,0-0.12,0-0.18
							c0,0,0,0,0.1-0.28c0,0-0.01,0.05-0.02,0.13C487.13,216.99,487.11,217.09,487.09,217.19z M488.25,220.15
							C488.25,220.15,488.25,220.15,488.25,220.15c-0.04,0.09-0.07,0.15-0.07,0.15C488.21,220.24,488.23,220.19,488.25,220.15z
							 M478.85,202.57c0.33,0.43,0.65,0.87,0.93,1.32c0.15,0.22,0.29,0.45,0.43,0.67c0.14,0.23,0.27,0.46,0.39,0.69
							c-0.15-0.21-0.3-0.42-0.46-0.63c-0.21-0.34-0.43-0.68-0.64-1.03C479.3,203.25,479.07,202.91,478.85,202.57z M486.93,219.31
							c0.03-0.28,0.09-0.51,0.16-0.73c-0.05-0.18-0.09-0.36-0.14-0.55c-0.05-0.25-0.1-0.5-0.15-0.75c-0.02-0.12-0.05-0.25-0.07-0.37
							c-0.03-0.12-0.06-0.25-0.08-0.37c-0.04,0.08-0.06-0.04-0.09-0.1c-0.02-0.06-0.04-0.12-0.06-0.18
							c0.05,0.26,0.11,0.52,0.15,0.79c0.04,0.26,0.08,0.53,0.12,0.8C486.85,218.32,486.9,218.85,486.93,219.31z M487.5,222.57
							c-0.01,0-0.01,0-0.02,0.01c0,0,0,0-0.08-0.03C487.4,222.54,487.44,222.55,487.5,222.57z M487.63,222.63
							c0,0,0.01-0.01,0.01-0.01C487.67,222.63,487.66,222.63,487.63,222.63z M487.76,222.35c-0.02,0.02-0.04,0.04-0.04,0.06
							C487.76,222.35,487.76,222.35,487.76,222.35z M490.16,221.72l-0.44-0.26l0.43,0.29L490.16,221.72z"/>
					</g>
				</g>
			</g>
		</g>
		<g>
			<g>
				<g>
					<path class="st1" d="M477.74,222.81c0.01,0,0.03-0.01,0.04-0.01c0.01,0,0.02,0.01,0.02,0.02c0,0,0,0.01,0,0.01l0,0c0,0,0,0,0,0
						c0,0,0,0,0,0l0.03,0l-0.03,0l0,0c0,0,0.01,0,0.01,0l0.01,0c0.01,0,0.02-0.01,0.03-0.01l0.01-0.01l0.01,0c0,0,0-0.02,0-0.03
						l0.01-0.13c0.01-0.18,0.01-0.36,0.01-0.55c0-0.19-0.02-0.37-0.03-0.56c-0.02-0.19-0.06-0.37-0.1-0.56
						c-0.04-0.18-0.08-0.37-0.13-0.54c-0.02-0.09-0.05-0.18-0.07-0.26c-0.03-0.09-0.06-0.17-0.09-0.25
						c-0.13-0.33-0.26-0.63-0.39-0.89c-0.07-0.4-0.26-0.73-0.4-0.74c-0.14-0.01-0.2,0.31-0.12,0.7c0,0.09,0.01,0.19,0,0.26
						c-0.05,0.3-0.08,0.63-0.1,0.97c-0.02,0.35-0.04,0.71-0.04,1.1c0.02-0.15,0.04-0.31,0.06-0.46c0,0.22-0.01,0.44,0.02,0.68
						c0.02-0.03,0.04-0.06,0.06-0.09c-0.04,0.38-0.05,0.83,0.02,1.24c0.01,0.05,0.02,0.1,0.03,0.15l0,0.02l0,0
						c-0.19,0.01,1.67-0.09,0.88-0.05l0,0l0,0l0,0l0,0l-0.01,0l-0.01,0c-0.01,0,0.02,0,0.02,0l0.07,0c0.04,0,0.08,0,0.13,0
						c0.05,0,0.1,0.01,0.15,0.01c0.06,0.01,0.11,0.01,0.17,0.02c0.13,0.01,0.24,0.03,0.37,0.05c0.06,0.01,0.12,0.02,0.18,0.04
						c0.06,0.01,0.12,0.02,0.18,0.04c0.23,0.06,0.42,0.12,0.57,0.18c0.29,0.13,0.38,0.21,0.42,0.24c0.02,0.02,0.03,0.03,0.03,0.03
						c0,0,0,0-0.02-0.02c-0.02-0.02-0.04-0.04-0.09-0.07c-0.03-0.02-0.06-0.04-0.1-0.06c-0.04-0.02-0.1-0.06-0.15-0.08
						c-0.12-0.05-0.28-0.12-0.49-0.18c-0.1-0.03-0.22-0.06-0.34-0.08c-0.12-0.03-0.26-0.04-0.39-0.06
						c-0.07-0.01-0.16-0.02-0.22-0.02C477.88,222.83,477.81,222.82,477.74,222.81l-0.03,0.01c0,0,0,0,0,0l0.01,0
						C477.72,222.82,477.73,222.81,477.74,222.81z"/>
				</g>
			</g>
			<g>
				<g>
					<path class="st1" d="M478.42,221.41c-0.03,0.24-0.05,0.48-0.08,0.72c-0.01,0.12-0.03,0.23-0.04,0.35l-0.02,0.17l-0.01,0.09
						c0,0.01,0,0.04-0.01,0.04l-0.01,0.01c-0.02,0.01-0.03,0.02-0.05,0.02l0.21-0.01l-0.01,0c-0.01-0.01-0.02-0.02-0.03-0.03
						c0,0,0,0-0.01-0.01l-0.01-0.02l-0.02-0.04c-0.02-0.06-0.05-0.12-0.07-0.19c-0.04-0.13-0.09-0.28-0.12-0.43
						c-0.08-0.31-0.13-0.64-0.21-0.96l-0.06-0.23c-0.04-0.11-0.09-0.17-0.14-0.19c-0.11-0.04-0.18,0.17-0.15,0.47l0.03,0.34
						c-0.01,0.21-0.01,0.45-0.01,0.7c0,0.12,0.01,0.25,0.02,0.37c0.01,0.06,0.01,0.13,0.02,0.19l0,0.04l0,0c0,0,0,0,0,0.01
						c0,0,0,0,0.01,0c-0.01,0,0.04,0,0.11,0.01c0.07,0,0.14,0.01,0.21,0.02c0.08,0.01,0.15,0.01,0.23,0.03
						c0.31,0.04,0.63,0.11,0.88,0.2c0.25,0.08,0.43,0.18,0.54,0.25c0.03,0.03,0.05,0.03,0.07,0.05c0.02,0.01,0.04,0.04,0.05,0.05
						c0.01,0.01,0.02,0.02,0.03,0.03c0.01,0.01,0.02,0.02,0.02,0.02c0.02,0.03,0,0,0,0c0,0,0,0-0.02-0.02
						c-0.01-0.01-0.02-0.02-0.03-0.03c-0.02-0.02-0.05-0.05-0.08-0.07c-0.04-0.03-0.09-0.07-0.16-0.1
						c-0.04-0.02-0.07-0.04-0.11-0.06c-0.02-0.01-0.04-0.02-0.06-0.03c-0.02-0.01-0.05-0.02-0.07-0.03
						c-0.19-0.07-0.48-0.16-0.75-0.21c0.01,0-0.01-0.09-0.06-0.14l-0.02-0.02c-0.01-0.01-0.01-0.03-0.02-0.04
						c-0.02-0.03-0.03-0.06-0.05-0.08c-0.03-0.04-0.07-0.07-0.11-0.07c0-0.07,0.01-0.15,0.01-0.22c0.02,0.06,0.04,0.11,0.07,0.17
						c-0.13-0.11-0.2-0.5-0.29-0.78c-0.02-0.14-0.04-0.28-0.08-0.43c-0.1,0.09-0.2,0.18-0.3,0.27l0.06,0.22
						c0.01-0.02,0.03-0.05,0.03-0.05c0.06,0.21,0.12,0.41,0.19,0.62c0.03,0.1,0.06,0.21,0.09,0.32l0.02,0.08
						c0.01,0.02,0.01,0.02,0.01,0.03c0.01,0.01,0.02,0.02,0.02,0.03c0.01,0.01,0.02,0.02,0.03,0.02c0.01,0,0.01,0,0.01,0.01
						l0.14,0.02c0.27,0.04,0.55,0.1,0.79,0.18c0.19,0.06,0.26,0.1,0.25,0.1c-0.01,0-0.04-0.02-0.09-0.04
						c-0.05-0.02-0.13-0.04-0.24-0.08c-0.06-0.02-0.11-0.03-0.17-0.05c-0.06-0.02-0.12-0.03-0.18-0.04l-0.09-0.02l-0.08-0.02l0.02,0
						l-0.02,0c0,0,0,0,0,0l0.02,0l0.04,0.01c0.03,0.01,0.05,0.01,0.08,0.02l-0.15-0.03l0.01,0c0.01,0,0.01-0.01,0.02-0.01
						c0.01-0.02,0.02-0.04,0.03-0.06l0.01-0.04l0-0.02l0-0.01l0-0.03l0-0.23c0-0.31,0.01-0.63,0.02-0.93
						c0.01-0.1-0.02-0.21-0.06-0.26C478.46,221.26,478.42,221.31,478.42,221.41z"/>
				</g>
			</g>
			<g>
				<g>
					<g>
						<path class="st1" d="M478.96,223.02c0.25,0.08,0.48,0.17,0.67,0.29c0.03,0.02,0.04,0.03,0.05,0.03
							c0.01,0.01,0.02,0.01,0.02,0.02c-0.01-0.01-0.03-0.02-0.04-0.03c-0.02-0.02-0.04-0.03-0.07-0.05
							c-0.02-0.02-0.05-0.03-0.08-0.04c-0.03-0.02-0.06-0.04-0.1-0.05c-0.03-0.02-0.06-0.03-0.09-0.04
							c-0.03-0.02-0.06-0.03-0.09-0.04c-0.06-0.02-0.1-0.03-0.15-0.05C478.99,223.03,478.95,223.02,478.96,223.02z"/>
					</g>
				</g>
				<g>
					<g>
						<path class="st1" d="M479.7,223.36c0.02,0.02,0.04,0.04,0.05,0.05c0.01,0.01,0.01,0.01,0.01,0.01l-0.02-0.01l-0.02-0.02
							c-0.01-0.01-0.02-0.01-0.02-0.01S479.71,223.37,479.7,223.36z"/>
					</g>
				</g>
				<g>
					<g>
						<path class="st1" d="M466.99,199.87c-1.27-1.54-2.63-3.03-4.06-4.47c-0.05-0.05-0.1-0.08-0.12-0.07
							c-0.02,0.01,0.01,0.06,0.05,0.1c1.43,1.45,2.78,2.93,4.05,4.46c0.04,0.05,0.09,0.08,0.11,0.08
							C467.05,199.96,467.03,199.92,466.99,199.87z"/>
					</g>
				</g>
				<g>
					<g>
						<path class="st1" d="M457.47,187.89c0.05,0.02,0.06,0.01,0.03-0.04c-0.02-0.04-0.08-0.09-0.13-0.11
							c-0.04-0.02-0.06,0-0.03,0.04C457.37,187.82,457.43,187.87,457.47,187.89z"/>
					</g>
				</g>
				<g>
					<g>
						<path class="st1" d="M458.9,187.07c0.24,0.17,0.47,0.33,0.69,0.46c0.04,0.02,0.08,0.06,0.1,0.09
							c0.01-0.03,0.07-0.02,0.16,0.04c1.74,1.19,3.48,2.63,5.19,4.07c0.03-0.01,0.07,0,0.12,0.01c0.17,0.05,0.42,0.24,0.64,0.47
							l0.16,0.18c0.66,0.72,1.32,1.43,1.96,2.16c0.17,0.12,0.35,0.27,0.52,0.45c0.33,0.27,0.65,0.55,0.98,0.83
							c0.32,0.29,0.64,0.58,0.96,0.88c-0.02-0.05-0.02-0.1,0-0.11c0.06-0.03,0.24,0.08,0.39,0.26l0.24,0.27
							c-0.21-0.27-0.42-0.53-0.63-0.8c-0.03-0.04-0.06-0.07-0.08-0.11c-0.25-0.28-0.5-0.56-0.77-0.83
							c-2.32-2.41-4.78-4.39-7.26-6.25c-0.05-0.03-0.1-0.08-0.12-0.12c-0.01-0.03,0.01-0.04,0.06-0.01c1.68,1.06,3.24,1.9,4.99,3.32
							c2.08,1.68,4.06,3.46,5.97,5.48c0.47,0.55,0.91,1.11,1.36,1.65c0.22,0.28,0.44,0.55,0.67,0.82c0.22,0.27,0.45,0.55,0.66,0.83
							c0.22,0.28,0.44,0.56,0.65,0.84c0.21,0.29,0.43,0.57,0.64,0.86c0.11,0.14,0.21,0.29,0.32,0.44c0.1,0.15,0.21,0.3,0.31,0.45
							c0.21,0.3,0.42,0.6,0.63,0.91c1.13,1.68,2.09,3.41,2.93,5.2c0.83,1.79,1.53,3.64,2.08,5.58c0.24,0.72,0.33,1.44,0.35,2.01
							c0.01,0.28-0.03,0.53-0.07,0.72c-0.05,0.19-0.12,0.33-0.22,0.39c-0.23,0.15-0.52-0.14-0.8-0.7c0.03,0.12,0.04,0.23,0.06,0.35
							l0.05,0.57c0.02,0.27,0.03,0.52,0.02,0.74c-0.02,0.22-0.05,0.41-0.11,0.57l-0.12,0.41c-0.24,0.55-0.47,1.41-0.78,1.85
							l-0.14-0.08l-0.03,0.1c-0.03,0.16-0.08,0.29-0.13,0.44c-0.06,0.13-0.13,0.22-0.2,0.26l-0.16-0.04
							c-0.18-0.08-0.34-0.26-0.53-0.49c-0.07,0.01-0.14-0.01-0.2-0.07c-0.14,0.22-0.31,0.33-0.51,0.18
							c-0.04,0.13-0.11,0.11-0.16-0.04c-0.02-0.05-0.03-0.11-0.04-0.17c0,0,0,0,0,0c-0.04,0.07-0.05,0.09-0.08,0.19
							c0,0.06,0,0.11,0,0.14c0,0.03-0.01,0.04,0,0.04c-0.01,0.12-0.02,0.17-0.03,0.22c-0.01,0.05-0.02,0.1-0.05,0.17
							c-0.04,0.05-0.08,0.08-0.11,0.07c-0.01,0-0.01,0-0.02,0c0,0-0.01,0-0.01,0c0,0-0.01-0.01,0,0c0.03,0.02,0.05,0.02,0.05,0.02
							c0.03,0.01,0.06,0.03,0.08,0.05c0.02,0.01,0.04,0.02,0.06,0.03c0.03,0.02,0.07,0.05,0.09,0.06c0.04,0.02,0.06,0.05,0.07,0.06
							c0.02,0.02,0.01,0.01,0,0c-0.01-0.01-0.03-0.03-0.05-0.04c0.02,0.02,0.05,0.05,0.06,0.06c0.01,0.01,0.02,0.02,0.03,0.03
							c0.01,0.01,0.02,0.02,0.02,0.03c0,0,0.01,0.01,0.01,0.01c0,0,0-0.01,0-0.01c0,0-0.02-0.05-0.01-0.04c0-0.01,0-0.01,0-0.03
							c0,0,0,0,0-0.01c-0.07-0.44-0.12-0.81-0.16-1.06c0,0,0,0,0,0l0,0l0.16,1.07c0,0.04,0.01,0.07,0.02,0.07c0,0,0,0,0,0
							c0,0,0.01,0.01,0.01,0.01c0,0-0.01-0.02-0.01-0.02c-0.01-0.01-0.02-0.03-0.03-0.03c-0.01-0.01-0.02-0.01-0.02-0.02
							c-0.01-0.01-0.02-0.02-0.02-0.02c-0.06-0.05-0.15-0.11-0.22-0.14c-0.08-0.04-0.13-0.07-0.16-0.08
							c-0.08-0.04-0.08-0.04-0.08-0.04c-0.07-0.03-0.11-0.04-0.13-0.05c-0.02-0.01-0.02-0.01-0.02-0.01
							c-0.08-0.03-0.13-0.04-0.15-0.05c-0.02-0.01-0.02-0.01-0.02-0.01c0.1,0.03,0.1,0.03,0.1,0.03c-0.09-0.03-0.16-0.05-0.22-0.06
							c-0.05-0.01-0.08-0.02-0.1-0.03c0.01,0,0.01,0,0.01,0c0.08,0.02,0.14,0.04,0.19,0.05c0.06,0.02,0.1,0.03,0.13,0.04
							c0.05,0.02,0.05,0.02,0.05,0.02c-0.11-0.04-0.21-0.06-0.3-0.09c-0.04-0.01-0.09-0.02-0.12-0.03l0,0
							c0-0.01,0.01-0.01,0.01-0.02c0-0.01,0.01-0.02,0.01-0.05c0.01-0.05-0.01-0.11-0.01-0.11c-0.02,0.01-0.04,0.01-0.04,0.01
							c0.01-0.02,0-0.12,0-0.17c0-0.06,0-0.11,0-0.15c0-0.09,0-0.19,0-0.37c0.01-0.04,0.03-0.06,0.04-0.09
							c-0.02-0.03-0.04-0.1-0.04-0.18c0-0.07,0-0.13,0-0.19c0-0.01-0.01-0.03-0.01-0.04c0,0-0.01,0-0.01,0
							c-0.02-0.06-0.03-0.11-0.05-0.16c-0.01-0.03-0.01-0.03-0.01-0.03l0,0c-0.04-0.11-0.09-0.27-0.24-0.69
							c-0.01-0.11-0.01-0.22-0.01-0.32c-0.01,0.03-0.01,0.07-0.02,0.1c-0.01,0.06-0.08,0.02-0.09,0.05c-0.01,0.2-0.01,0.41,0,0.62
							c0,0.1,0,0.21,0.01,0.32c0,0.11,0,0.21,0,0.32c0,0.21,0,0.43,0,0.64l0,0.32c0,0.04,0,0.03,0,0.04c0,0.01,0,0.01-0.01,0.02
							c0,0.01-0.01,0.03-0.01,0.04c0,0.01,0,0.01,0,0.02c0,0,0,0-0.01,0l0,0l0,0c0,0,0,0,0,0l0.01,0c0.15,0.02,0.27,0.04,0.3,0.05
							c0.03,0.01-0.03-0.01-0.16-0.03c-0.06-0.01-0.13-0.02-0.22-0.03c-0.02,0-0.04,0-0.06-0.01l-0.03,0c-0.01,0,0,0-0.01,0
							c0,0,0,0,0,0c-0.02-0.01-0.04-0.03-0.06-0.04c0,0,0,0-0.01-0.01l-0.01-0.04l-0.02-0.08c-0.01-0.06-0.03-0.11-0.04-0.17
							c-0.05-0.22-0.1-0.45-0.14-0.68c-0.02-0.12-0.04-0.23-0.06-0.35c-0.02-0.12-0.04-0.23-0.07-0.35
							c-0.04-0.23-0.08-0.47-0.11-0.71c-0.03-0.24-0.07-0.48-0.11-0.71c-0.03-0.24-0.06-0.48-0.09-0.71
							c-0.06-0.47-0.13-0.94-0.16-1.39c-0.09-0.46-0.2-0.93-0.3-1.39c0,0.02-0.01,0.05-0.01,0.07c-0.02-0.12-0.05-0.24-0.07-0.37
							l-0.01-0.04c-0.01,0.1-0.02,0.2-0.02,0.3c0.01,0.06,0.02,0.13,0.03,0.19c0.26,1.08,0.34,2.08,0.41,3.13
							c0.02,0.28,0.03,0.54,0.03,0.8c-0.01,0.26-0.02,0.51-0.03,0.78c0.01,0.13-0.02,0.23-0.06,0.22c-0.05-0.01-0.1-0.13-0.11-0.26
							c-0.04-0.21-0.08-0.43-0.11-0.65c-0.04-0.22-0.09-0.44-0.13-0.67c-0.04-0.22-0.08-0.45-0.11-0.67
							c-0.04-0.22-0.09-0.45-0.12-0.67c-0.04-0.22-0.07-0.44-0.1-0.66c-0.04-0.22-0.07-0.43-0.1-0.64
							c-0.03-0.21-0.05-0.41-0.06-0.61c-0.02-0.2-0.04-0.39-0.05-0.57c-0.1-0.31-0.16-0.62-0.19-0.89l0-0.01
							c-0.01,0.07-0.01,0.14-0.02,0.22c-0.06-0.24-0.03-0.39-0.08-0.61c-0.03,0.04-0.06,0.08-0.1,0.12
							c-0.09-0.29-0.18-0.59-0.28-0.88c-0.11-0.29-0.22-0.59-0.33-0.88c-0.1-0.29-0.22-0.58-0.33-0.87
							c-0.11-0.29-0.2-0.57-0.28-0.85c-0.02-0.04-0.03-0.08-0.05-0.12c-0.15-0.2-0.31-0.41-0.45-0.62
							c-0.07-0.11-0.15-0.22-0.22-0.34c-0.08-0.12-0.15-0.24-0.22-0.36c0.08,0.18,0.17,0.36,0.24,0.54c-0.24-0.35-0.49-0.7-0.7-1.11
							c-0.14-0.27-0.3-0.55-0.43-0.83c-0.14-0.28-0.26-0.57-0.38-0.84c-0.23-0.54-0.38-1.05-0.43-1.41
							c-1.38-2.01-2.92-3.95-4.62-5.77c-0.09-0.09-0.14-0.2-0.13-0.24c0.02-0.03,0.11,0.01,0.19,0.1c1.28,1.26,2.47,2.63,3.57,4.05
							c-0.82-1.25-1.71-2.48-2.71-3.68c-0.13-0.15-0.27-0.3-0.4-0.44c-0.13-0.15-0.26-0.3-0.37-0.46c-1.32-1.5-2.62-2.9-4.16-4.28
							c-1.32-1.18-2.51-2.18-3.9-3.29c-1.95-1.56-3.78-2.94-5.66-4.57c-0.26-0.21-0.44-0.46-0.4-0.55c0.04-0.1,0.28,0,0.54,0.21
							c2.06,1.59,4.1,3.16,6.09,4.81c1.98,1.65,3.91,3.39,5.71,5.33c0.39,0.42,0.77,0.83,1.14,1.25c0.01-0.01,0.01-0.03,0.02-0.04
							c0.04-0.03,0.11-0.03,0.21,0.02c-0.42-0.48-0.84-0.96-1.26-1.45c-1.32-1.22-2.68-2.41-4.03-3.77
							c-0.93-0.94-1.73-1.83-2.57-2.72c-1.2-1-2.43-1.98-3.65-2.98c-0.05-0.04-0.09-0.09-0.1-0.12c0-0.03,0.03-0.02,0.09,0.02
							c0.91,0.63,1.8,1.3,2.7,1.99c-0.09-0.16-0.11-0.29-0.04-0.34c0.07-0.05,0.23-0.02,0.43,0.08l-0.57-0.51
							c-0.12-0.11-0.18-0.21-0.15-0.24c0.04-0.03,0.15,0.03,0.27,0.13c0.78,0.69,1.55,1.39,2.31,2.09c0.96,0.8,1.89,1.62,2.82,2.45
							c-0.08-0.16-0.12-0.3-0.11-0.39l0,0c-0.14-0.13-0.28-0.26-0.42-0.39c-2.74-2.25-5.56-4.52-8.28-6.95
							c-0.05-0.05-0.09-0.1-0.07-0.11c0.01-0.02,0.07,0.01,0.11,0.05c0.82,0.73,1.65,1.45,2.49,2.16c0,0,0,0,0,0
							c-0.02-0.04-0.01-0.06,0.03-0.04c0.04,0.02,0.11,0.08,0.13,0.11c0.03,0.04,0.01,0.06-0.03,0.04c1.56,1.32,3.13,2.61,4.68,3.87
							c-1.37-1.25-2.76-2.47-4.13-3.73c-0.17-0.12-0.34-0.23-0.51-0.35c-0.05-0.03-0.09-0.09-0.1-0.12c0-0.02,0.05-0.01,0.09,0.02
							l0.14,0.1c-0.26-0.24-0.4-0.48-0.32-0.55c0.09-0.06,0.38,0.08,0.65,0.32c0.75,0.63,1.49,1.27,2.22,1.91l0.25,0.2
							c0.09,0.06,0.18,0.12,0.27,0.18c-1.1-1.04-2.2-2.08-3.29-3.11c-0.1-0.08-0.16-0.18-0.14-0.21c0.02-0.03,0.13,0.02,0.22,0.1
							c2.1,1.64,4.19,3.35,6.21,5.15c0.38,0.25,0.76,0.5,1.15,0.75c0.38,0.26,0.76,0.52,1.15,0.78c-0.08-0.08-0.16-0.16-0.25-0.24
							c-2.12-2.06-4.3-3.42-6.49-5.23c-0.06-0.04-0.09-0.09-0.08-0.11c0.01-0.02,0.06,0,0.11,0.05c1.08,0.87,2.14,1.61,3.24,2.46
							c0.45,0.36,0.9,0.7,1.33,1.04c0.43,0.34,0.86,0.68,1.29,1.01c-1.6-1.48-3.29-2.75-4.96-4.11c-0.08-0.06-0.14-0.13-0.17-0.18
							c-0.01,0-0.03,0-0.06-0.02c-0.24-0.14-0.48-0.31-0.73-0.49c-0.05-0.03-0.1-0.08-0.11-0.12
							C458.8,187.03,458.84,187.04,458.9,187.07z M478.5,217.6c0,0.02-0.01,0.04-0.01,0.05c0-0.06,0-0.12,0-0.18c0,0,0,0,0.1-0.28
							c0,0-0.01,0.05-0.02,0.13C478.54,217.4,478.52,217.5,478.5,217.6z M479.66,220.57C479.66,220.57,479.66,220.57,479.66,220.57
							c-0.04,0.09-0.07,0.15-0.07,0.15C479.62,220.66,479.64,220.61,479.66,220.57z M470.26,202.98c0.33,0.43,0.65,0.87,0.93,1.32
							c0.15,0.22,0.29,0.45,0.43,0.67c0.14,0.23,0.27,0.46,0.39,0.69c-0.15-0.21-0.3-0.42-0.46-0.63c-0.21-0.34-0.43-0.68-0.64-1.03
							C470.71,203.67,470.48,203.33,470.26,202.98z M478.34,219.73c0.03-0.28,0.09-0.51,0.16-0.73c-0.05-0.18-0.09-0.36-0.14-0.55
							c-0.05-0.25-0.1-0.5-0.15-0.75c-0.02-0.12-0.05-0.25-0.07-0.37c-0.03-0.12-0.06-0.25-0.08-0.37c-0.04,0.08-0.06-0.04-0.09-0.1
							c-0.02-0.06-0.04-0.12-0.06-0.18c0.05,0.26,0.11,0.52,0.15,0.79c0.04,0.26,0.08,0.53,0.12,0.8
							C478.26,218.74,478.31,219.27,478.34,219.73z M478.91,222.99c-0.01,0-0.01,0-0.02,0.01c0,0,0,0-0.08-0.03
							C478.81,222.96,478.85,222.97,478.91,222.99z M479.04,223.04c0,0,0.01-0.01,0.01-0.01
							C479.08,223.04,479.07,223.05,479.04,223.04z M479.17,222.76c-0.02,0.02-0.04,0.04-0.04,0.06
							C479.17,222.77,479.17,222.76,479.17,222.76z M481.57,222.14l-0.44-0.26l0.43,0.29L481.57,222.14z"/>
					</g>
				</g>
			</g>
		</g>
		<g>
			<g>
				<g>
					<path class="st2" d="M454.83,189.93c0.02,0.03,0.05,0.07,0.07,0.1c-0.08-0.02-0.17-0.08-0.27-0.17
						c0.2,0.24,0.45,0.46,0.71,0.68c0.26,0.22,0.54,0.42,0.84,0.6c0.59,0.36,1.19,0.67,1.71,0.87c0.29,0.24,0.62,0.38,0.74,0.3
						c0.12-0.08-0.02-0.34-0.31-0.58c-0.06-0.06-0.13-0.13-0.16-0.19c-0.15-0.25-0.33-0.5-0.54-0.76c-0.21-0.26-0.46-0.51-0.73-0.77
						c0.09,0.11,0.19,0.23,0.28,0.35c-0.15-0.15-0.3-0.3-0.49-0.45c0.01,0.03,0.01,0.07,0.02,0.11c-0.24-0.28-0.57-0.58-0.93-0.78
						c-0.36-0.21-0.72-0.36-1.01-0.41c-0.58-0.08-0.63,0.3-0.14,0.85L454.83,189.93z"/>
				</g>
			</g>
			<g>
				<g>
					<path class="st2" d="M455.45,191.31c-0.14-0.16-0.29-0.32-0.43-0.48c-0.14-0.16-0.28-0.31-0.43-0.47l-0.04-0.08l-0.1,0.18
						l0.01-0.01c0.21,0.04,0.47,0.13,0.72,0.27c0.26,0.13,0.52,0.29,0.78,0.45l0.19,0.1c0.1,0.04,0.18,0.05,0.22,0.03
						c0.1-0.05,0.01-0.23-0.2-0.4l-0.25-0.2c-0.14-0.14-0.3-0.29-0.48-0.43c-0.18-0.14-0.38-0.28-0.58-0.4
						c-0.4-0.24-0.79-0.4-1.07-0.38c-0.13,0.01-0.12,0.14-0.16,0.23c-0.11,0.09,0.06,0.35,0.37,0.57c0.31,0.22,0.65,0.33,0.75,0.24
						c0.05,0.04,0.1,0.09,0.15,0.13c-0.05-0.02-0.1-0.03-0.16-0.05c0.08-0.02,0.2,0.02,0.33,0.07c0.13,0.06,0.26,0.13,0.39,0.18
						l0.34,0.21l0.02-0.38l-0.19-0.09c0,0.02,0.02,0.05,0.01,0.05c-0.37-0.17-0.72-0.3-1.11-0.5l-0.51-0.21
						c-0.16-0.03-0.2,0.05-0.1,0.18l0.15,0.19c-0.02-0.03-0.04-0.06-0.06-0.09c0.41,0.37,0.86,0.72,1.24,1.1
						c0.06,0.06,0.15,0.11,0.21,0.11C455.51,191.43,455.51,191.38,455.45,191.31z"/>
				</g>
			</g>
			<g>
				<g>
					<g>
						<path class="st2" d="M453.85,190.24c-0.06-0.07-0.11-0.14-0.22-0.2c-0.03-0.01-0.05-0.01-0.06-0.01
							c0.03,0.04,0.07,0.09,0.11,0.14C453.75,190.27,453.83,190.28,453.85,190.24z"/>
					</g>
				</g>
				<g>
					<g>
						<path class="st2" d="M453.57,190.03c-0.03-0.04-0.05-0.06-0.05-0.06c0.01,0.02,0.01,0.03,0.02,0.05
							c0.01,0.01,0.01,0.01,0.01,0.01S453.56,190.03,453.57,190.03z"/>
					</g>
				</g>
				<g>
					<g>
						<path class="st2" d="M470.45,206.39c0.85,1.43,1.61,2.91,2.35,4.39c0.02,0.05,0.06,0.09,0.08,0.08c0.02,0,0.01-0.05-0.01-0.1
							c-0.74-1.49-1.5-2.96-2.35-4.39c-0.03-0.05-0.07-0.08-0.09-0.08C470.41,206.31,470.42,206.35,470.45,206.39z"/>
					</g>
				</g>
				<g>
					<g>
						<path class="st2" d="M473.77,218.23c-0.02-0.03-0.04-0.03-0.05,0.01c0,0.04,0.01,0.1,0.03,0.13c0.02,0.03,0.05,0.02,0.05-0.01
							C473.81,218.32,473.79,218.26,473.77,218.23z"/>
					</g>
				</g>
				<g>
					<g>
						<path class="st2" d="M472.13,218.26c-0.08-0.2-0.17-0.38-0.27-0.54c-0.02-0.03-0.03-0.07-0.03-0.09
							c-0.03,0.02-0.07-0.01-0.1-0.08c-0.7-1.34-1.43-2.79-2.29-4.18c-0.03,0-0.06-0.01-0.1-0.03c-0.12-0.07-0.26-0.25-0.35-0.46
							l-0.06-0.17c-0.13-0.33-0.29-0.65-0.44-0.97c-0.15-0.32-0.3-0.64-0.45-0.96c-0.11-0.11-0.21-0.24-0.31-0.4
							c-0.4-0.48-0.79-0.96-1.19-1.45c0,0.04-0.01,0.08-0.03,0.09c-0.07,0.02-0.19-0.07-0.28-0.22l-0.14-0.21
							c0.11,0.21,0.23,0.43,0.34,0.64c0.02,0.03,0.03,0.06,0.04,0.09c0.14,0.22,0.28,0.46,0.42,0.69c0.65,1.01,1.27,1.99,1.89,2.96
							c0.15,0.24,0.31,0.49,0.46,0.73l0.23,0.36l0.23,0.36c0.3,0.48,0.59,0.96,0.87,1.44c0.02,0.03,0.04,0.08,0.04,0.12
							c-0.01,0.03-0.03,0.03-0.05,0c-0.42-0.58-0.87-1.09-1.33-1.63c-0.23-0.27-0.47-0.54-0.7-0.82c-0.24-0.28-0.45-0.59-0.7-0.91
							c-0.28-0.38-0.56-0.76-0.84-1.14c-0.29-0.37-0.58-0.75-0.87-1.12c-0.28-0.38-0.59-0.74-0.88-1.11
							c-0.15-0.19-0.29-0.37-0.44-0.56c-0.15-0.18-0.31-0.37-0.46-0.55c-1.12-1.64-2.38-3.03-3.81-4.48
							c-0.23-0.25-0.49-0.49-0.73-0.73c-0.24-0.24-0.48-0.48-0.71-0.72c-0.24-0.23-0.48-0.47-0.73-0.7
							c-0.24-0.23-0.47-0.47-0.72-0.69l-0.73-0.68c-0.12-0.11-0.24-0.23-0.37-0.34l-0.38-0.33c-0.25-0.22-0.5-0.44-0.75-0.66
							c-0.25-0.22-0.51-0.43-0.77-0.65c-0.2-0.15-0.39-0.32-0.55-0.49c-0.16-0.17-0.3-0.33-0.41-0.49
							c-0.22-0.32-0.31-0.61-0.23-0.81c0.1-0.23,0.43-0.27,0.88-0.12c-0.07-0.05-0.13-0.11-0.2-0.16l-0.28-0.28
							c-0.13-0.14-0.25-0.27-0.34-0.4c-0.09-0.13-0.16-0.25-0.2-0.37l-0.12-0.3c-0.1-0.47-0.42-1.05-0.48-1.49l0.14-0.06l-0.04-0.07
							c-0.15-0.21-0.21-0.4-0.18-0.54l0.11-0.11c0.15-0.11,0.35-0.17,0.62-0.18c0.03-0.06,0.09-0.09,0.17-0.11
							c-0.05-0.22-0.01-0.4,0.21-0.46c-0.06-0.09,0-0.14,0.12-0.1c0.04,0.01,0.09,0.04,0.14,0.07c0,0,0,0,0,0
							c-0.02-0.06-0.03-0.08-0.07-0.16c-0.08-0.07-0.12-0.11-0.12-0.11c-0.21-0.18-0.21-0.18-0.4-0.34c-0.14-0.16-0.2-0.29-0.2-0.29
							c-0.03-0.35-0.03-0.35,0.07-0.42c0.02,0,0.04,0,0.06,0c-0.13-0.14-0.14-0.15-0.17-0.18c-0.03-0.05-0.05-0.09-0.05-0.09
							c0.03-0.06,0.03-0.06,0.02-0.09c0.01-0.03,0.02-0.04,0.02-0.04c0.13,0,0.13,0,0.14-0.01c0.03,0,0.07,0.01,0.07,0.01
							c0.11,0.05,0.16,0.07,0.18,0.08c0.12,0.28,0.12,0.28,0.12,0.28c0.08-0.01,0.08-0.01,0.08-0.01c0,0.09,0,0.09,0,0.09
							c0.01-0.07,0.01-0.07,0.01-0.07c0.08,0.11,0.08,0.11,0.08,0.11c-0.09-0.13-0.09-0.13-0.09-0.13c0.24,0.2,0.24,0.2,0.35,0.27
							c0.1,0.08,0.21,0.13,0.22,0.14c0-0.02,0.01-0.04,0.01-0.04c0.26,0.21,0.26,0.21,0.51,0.42c0.01,0.03,0.02,0.06,0.03,0.08
							c0.04,0,0.09,0.03,0.14,0.07l0.13,0.11c0.01,0,0.02,0.01,0.04,0.01c0,0,0,0,0,0c0.06,0.02,0.09,0.04,0.14,0.06
							c0.03,0.01,0.03,0.01,0.03,0.01l0,0c0.09,0.04,0.23,0.1,0.6,0.26c0.08,0.07,0.15,0.13,0.21,0.19
							c-0.02-0.03-0.03-0.05-0.05-0.07c-0.03-0.05,0.05-0.07,0.03-0.09c-0.5-0.52-1.09-1.04-1.7-1.53
							c-0.12-0.07-0.21-0.18-0.19-0.23c0.02-0.05,0.13-0.03,0.25,0.05c0.76,0.31,1.51,0.78,2.23,1.31c0.36,0.26,0.69,0.56,1.01,0.85
							c0.32,0.3,0.62,0.59,0.88,0.91c0.31,0.29,0.61,0.59,0.92,0.89l-0.03-0.06l0.22,0.25l0.03,0.03c-0.04-0.08-0.08-0.16-0.11-0.24
							c-0.04-0.05-0.07-0.09-0.11-0.14c-0.36-0.34-0.69-0.68-1.01-1.03c-0.32-0.35-0.65-0.68-0.99-1.03
							c-0.19-0.18-0.35-0.37-0.51-0.54c-0.16-0.18-0.33-0.35-0.5-0.53c-0.1-0.08-0.15-0.16-0.1-0.19c0.04-0.02,0.16,0.02,0.25,0.1
							c0.7,0.45,1.39,1.01,2.02,1.57c0.31,0.28,0.59,0.59,0.85,0.88c0.25,0.29,0.49,0.58,0.66,0.87c0.22,0.2,0.41,0.42,0.54,0.63
							l0.01,0.01c-0.02-0.06-0.05-0.13-0.07-0.19c0.15,0.17,0.18,0.3,0.31,0.46c0.01-0.05,0.02-0.09,0.04-0.14
							c0.39,0.39,0.79,0.8,1.18,1.21c0.19,0.2,0.38,0.41,0.56,0.61c0.18,0.21,0.33,0.42,0.47,0.63c0.03,0.03,0.05,0.06,0.07,0.09
							c0.37,0.26,0.75,0.51,1.11,0.89c-0.11-0.14-0.21-0.27-0.33-0.41c0.31,0.23,0.58,0.49,0.85,0.79c0.74,0.81,1.35,1.87,1.45,2.5
							c1.35,1.6,2.62,3.27,3.82,4.97c0.06,0.09,0.09,0.18,0.07,0.22c-0.03,0.03-0.1-0.01-0.16-0.1c-0.22-0.3-0.46-0.59-0.7-0.89
							c-0.23-0.3-0.46-0.59-0.7-0.89c-0.23-0.3-0.48-0.59-0.71-0.88c-0.24-0.29-0.47-0.59-0.72-0.88c0.36,0.52,0.7,1.05,1.06,1.58
							c0.35,0.53,0.69,1.07,1.05,1.6c0.1,0.13,0.19,0.27,0.29,0.4c0.09,0.13,0.17,0.28,0.24,0.42c0.22,0.35,0.44,0.69,0.65,1.03
							c0.2,0.35,0.41,0.69,0.61,1.04c0.1,0.17,0.21,0.34,0.31,0.52c0.1,0.18,0.2,0.35,0.3,0.53c0.2,0.35,0.41,0.71,0.64,1.06
							c0.36,0.62,0.7,1.2,1.03,1.79c0.33,0.59,0.66,1.19,0.99,1.85c0.47,0.93,0.89,1.85,1.22,2.82c0.33,0.98,0.59,2,0.69,3.11
							c0.04,0.29-0.02,0.57-0.11,0.61c-0.1,0.04-0.19-0.17-0.24-0.46c-0.17-1.13-0.47-2.21-0.83-3.23c-0.37-1.02-0.8-2-1.26-2.94
							c-0.46-0.95-0.95-1.85-1.45-2.77c-0.12-0.23-0.24-0.46-0.37-0.69c-0.13-0.23-0.26-0.46-0.39-0.69
							c-0.26-0.46-0.5-0.93-0.78-1.39c-0.23-0.4-0.46-0.8-0.68-1.19c-0.01,0.01-0.02,0.02-0.03,0.03c-0.05,0.03-0.11,0.01-0.19-0.03
							c0.26,0.44,0.49,0.9,0.73,1.36l0.31,0.45l0.29,0.46c0.19,0.31,0.39,0.62,0.58,0.93c0.19,0.31,0.36,0.64,0.53,0.98
							c0.17,0.33,0.34,0.67,0.49,1.02c0.41,0.97,0.68,1.9,0.92,2.87c0.49,1.16,0.93,2.37,1.2,3.66c0.02,0.05,0.01,0.11,0,0.13
							c-0.02,0.02-0.04,0-0.06-0.06c-0.27-0.87-0.57-1.74-0.93-2.58c-0.02,0.15-0.07,0.25-0.16,0.27c-0.09,0.01-0.2-0.07-0.31-0.21
							c0.06,0.19,0.11,0.39,0.17,0.58c0.03,0.12,0.02,0.22-0.02,0.23c-0.05,0.01-0.11-0.08-0.14-0.19
							c-0.22-0.78-0.48-1.55-0.78-2.31c-0.2-0.44-0.41-0.88-0.63-1.31c-0.22-0.43-0.44-0.86-0.67-1.28c0,0.14-0.02,0.26-0.08,0.34
							l0,0c0.07,0.13,0.14,0.26,0.2,0.4c0.69,1.18,1.33,2.42,1.8,3.75c0.47,1.32,0.79,2.74,0.82,4.19c0,0.06-0.01,0.1-0.03,0.11
							c-0.02,0-0.04-0.04-0.04-0.09c-0.02-0.87-0.14-1.73-0.34-2.56c0,0,0,0,0,0c-0.01,0.04-0.03,0.05-0.05,0.01
							c-0.02-0.03-0.03-0.1-0.03-0.13c0.01-0.04,0.03-0.04,0.05-0.01c-0.38-1.55-1.02-3.01-1.76-4.36c0.6,1.3,1.11,2.64,1.42,4.04
							c0.06,0.15,0.12,0.29,0.18,0.44c0.01,0.04,0.01,0.1,0,0.12c-0.01,0.02-0.04-0.01-0.06-0.05c-0.01-0.04-0.03-0.08-0.05-0.12
							c0.05,0.27,0,0.49-0.11,0.5c-0.11,0-0.24-0.21-0.3-0.47c-0.18-0.72-0.4-1.42-0.65-2.11l-0.1-0.22
							c-0.04-0.07-0.09-0.14-0.13-0.21c0.36,1.09,0.62,2.19,0.77,3.3c0.02,0.09,0,0.18-0.04,0.19c-0.04,0.01-0.08-0.06-0.1-0.16
							c-0.5-1.9-1.31-3.72-2.22-5.52c-0.43-0.54-0.89-1.06-1.34-1.59c0.04,0.08,0.07,0.15,0.11,0.23c0.24,0.49,0.51,0.94,0.77,1.39
							c0.26,0.44,0.52,0.88,0.77,1.31c0.51,0.87,0.98,1.74,1.31,2.73c0.02,0.05,0.01,0.09,0,0.11c-0.02,0.01-0.05-0.02-0.06-0.07
							c-0.33-0.96-0.8-1.78-1.3-2.67c-0.41-0.74-0.83-1.43-1.3-2.08c0.38,0.71,0.77,1.39,1.13,2.08c0.36,0.69,0.7,1.38,0.98,2.11
							c0.03,0.06,0.04,0.13,0.03,0.18c0.01,0,0.03,0.01,0.04,0.03c0.11,0.17,0.2,0.36,0.29,0.56c0.02,0.04,0.02,0.09,0.01,0.12
							C472.18,218.32,472.15,218.3,472.13,218.26z M457.55,193.86c-0.01-0.02-0.01-0.03-0.02-0.04c0.03,0.04,0.06,0.08,0.09,0.13
							c0,0,0,0,0.06,0.25C457.68,194.18,457.61,194.02,457.55,193.86z M455.11,192.67C455.11,192.67,455.11,192.67,455.11,192.67
							c-0.02-0.08-0.04-0.14-0.04-0.14C455.08,192.59,455.09,192.63,455.11,192.67z M467.89,203.61c-0.13-0.18-0.26-0.37-0.39-0.55
							l-0.19-0.28l-0.2-0.27c-0.26-0.37-0.51-0.74-0.75-1.12c0.14,0.17,0.29,0.33,0.43,0.5c0.19,0.28,0.38,0.56,0.57,0.84
							C467.53,203.03,467.71,203.32,467.89,203.61z M456.54,192.32c0.14,0.21,0.22,0.4,0.29,0.58c0.14,0.08,0.27,0.18,0.4,0.29
							c0.17,0.14,0.34,0.28,0.5,0.43c0.16,0.15,0.32,0.3,0.47,0.44c-0.01-0.08,0.07,0,0.11,0.02c0.04,0.03,0.09,0.06,0.13,0.09
							c-0.16-0.16-0.32-0.32-0.49-0.49c-0.08-0.08-0.16-0.16-0.24-0.25c-0.08-0.08-0.17-0.16-0.25-0.24
							C457.16,192.92,456.81,192.62,456.54,192.32z M453.79,190.6c-0.01-0.01-0.01-0.02-0.02-0.04c0,0,0,0,0.12-0.01
							C453.89,190.54,453.85,190.57,453.79,190.6z M453.6,190.63c0.02,0.01,0.03,0.03,0.05,0.05
							C453.61,190.69,453.6,190.66,453.6,190.63z M454.04,191.05c-0.02-0.04-0.03-0.06-0.04-0.08
							C454.04,191.05,454.04,191.05,454.04,191.05z M452.93,193.14l0.43-0.18c-0.15,0.05-0.29,0.11-0.44,0.16L452.93,193.14z"/>
					</g>
				</g>
			</g>
		</g>
	</g>
	<g>
		<g>
			<g>
				<path class="st3" d="M138.73,313.94c0.02,0.3-0.14,0.45-0.49,0.45c-0.22,0-0.86-0.12-1.91-0.36c-1.06-0.24-1.7-0.41-1.95-0.5
					c-2.44,0.9-4.78,1.35-7.02,1.35c-3.6,0-6.55-1.13-8.86-3.4c-2.29-2.24-3.43-5.06-3.43-8.48c0-3.49,1.11-6.39,3.32-8.69
					c2.29-2.38,5.25-3.57,8.9-3.57c1.77,0,3.44,0.32,5,0.96c1.69,0.7,3.02,1.7,3.99,2.97c0.2,0.26,0.3,0.45,0.3,0.56
					c0,0.35-0.52,1.15-1.57,2.37c-1.04,1.23-1.71,1.84-2.02,1.84c-0.07,0-0.34-0.23-0.8-0.68c-0.57-0.54-1.15-0.96-1.75-1.26
					c-0.89-0.45-1.87-0.68-2.94-0.68c-1.75,0-3.14,0.62-4.16,1.85c-0.96,1.13-1.43,2.55-1.43,4.25c0,1.8,0.5,3.22,1.49,4.26
					c1.03,1.08,2.47,1.62,4.35,1.62c1.19,0,2.52-0.28,3.99-0.84c-0.03-0.36-0.14-1.29-0.31-2.78c-0.15-1.15-0.22-2.07-0.22-2.78
					c0-0.21,0.07-0.34,0.22-0.38c0.06-0.02,0.15-0.03,0.28-0.03c0.34,0,0.85,0.03,1.53,0.09c0.69,0.07,1.2,0.09,1.55,0.09
					c0.37,0,0.93-0.03,1.68-0.07c0.75-0.06,1.31-0.08,1.68-0.08c0.29,0,0.44,0.18,0.44,0.55c0,0.53-0.03,1.33-0.1,2.4
					c-0.06,1.07-0.09,1.87-0.09,2.4c0,1.42,0.12,3.55,0.34,6.38L138.73,313.94z"/>
				<path class="st3" d="M162.03,314.3c0,0.08-0.12,0.13-0.35,0.17c-0.44,0.07-1.55,0.1-3.34,0.1c-1.53,0-2.57-0.03-3.11-0.1
					c-0.26-0.03-0.41-0.06-0.44-0.08c-0.07-0.03-0.15-0.14-0.24-0.33c-0.17-0.43-0.43-1.07-0.77-1.92c-0.45-1.1-1.17-2.73-2.13-4.87
					c-0.21-0.43-0.69-0.67-1.45-0.71c0.35,0.02-0.26,0.03-1.81,0.03c-0.17,0-0.26,0.28-0.26,0.84c0,0.75,0.07,1.87,0.21,3.35
					c0.15,1.49,0.22,2.6,0.22,3.35c0,0.19-0.05,0.3-0.15,0.33c-0.16,0.01-0.33,0.02-0.49,0.03c-0.69,0.04-1.76,0.07-3.22,0.07
					c-1.67,0-2.67-0.03-3.01-0.1c-0.34-0.07-0.51-0.24-0.51-0.51c0-1.21,0.06-3.04,0.19-5.48c0.12-2.45,0.19-4.28,0.19-5.5
					c0-4.66-0.12-8.29-0.34-10.9l-0.01-0.23c-0.01-0.19,0.16-0.31,0.55-0.38c0.37-0.07,2.16-0.13,5.34-0.2
					c2.16-0.04,3.88-0.07,5.17-0.07c2.66,0,4.83,0.57,6.51,1.7c1.9,1.28,2.85,3.12,2.85,5.53c0,1.61-0.24,2.89-0.73,3.85
					c-0.49,0.96-1.39,1.89-2.71,2.79c-0.27,0.18-0.41,0.34-0.41,0.5c0-0.01,0.71,1.37,2.13,4.15
					C161.32,312.48,162.03,314.01,162.03,314.3z M154.68,299.48c0-1.34-0.47-2.27-1.4-2.79c-0.72-0.4-1.85-0.59-3.39-0.59
					c-1.11,0-1.69,0.16-1.76,0.48c-0.07,0.37-0.1,1.45-0.1,3.24c0,0.25,0,0.63,0.01,1.12s0.02,0.86,0.02,1.11
					c0,0.06,0.19,0.11,0.56,0.17c0.71,0.1,1.46,0.15,2.24,0.15C153.41,302.36,154.68,301.4,154.68,299.48z"/>
				<path class="st3" d="M188.3,302.9c0,3.44-1.15,6.32-3.48,8.64c-2.37,2.36-5.36,3.54-8.99,3.54c-3.6,0-6.6-1.19-8.98-3.57
					c-2.33-2.32-3.5-5.19-3.5-8.61c0-3.43,1.17-6.31,3.5-8.64c2.38-2.39,5.38-3.59,8.98-3.59c3.58,0,6.57,1.2,8.96,3.59
					C187.14,296.62,188.3,299.5,188.3,302.9z M181.68,302.87c0-1.65-0.54-3.06-1.6-4.21c-1.11-1.21-2.52-1.82-4.24-1.82
					c-1.64,0-3.04,0.63-4.19,1.88c-1.11,1.21-1.66,2.6-1.66,4.18c0,1.69,0.51,3.09,1.55,4.21c1.1,1.18,2.53,1.77,4.29,1.77
					c1.64,0,3.04-0.62,4.2-1.87C181.13,305.82,181.68,304.44,181.68,302.87z"/>
				<path class="st3" d="M211.8,306.35c0,2.81-0.36,4.73-1.07,5.75c-1.31,1.87-4.56,2.81-9.77,2.81c-2.36,0-4.17-0.17-5.45-0.51
					c-2.03-0.55-3.35-1.6-3.95-3.16c-0.3-0.76-0.45-2.11-0.45-4.06c0-0.45,0.02-1.12,0.06-2.02c0.03-0.89,0.05-1.56,0.05-2
					c0-1.28-0.06-3.19-0.19-5.75c-0.13-2.56-0.2-4.47-0.2-5.73c0-0.26,0.13-0.4,0.37-0.4c0.71,0,1.78,0.03,3.23,0.08
					c1.43,0.06,2.51,0.08,3.22,0.08c0.29,0,0.44,0.12,0.44,0.36c0,1.45-0.06,3.63-0.15,6.54c-0.1,2.9-0.15,5.08-0.15,6.53
					c0,1.73,0.2,2.9,0.58,3.5c0.51,0.83,1.59,1.24,3.22,1.24c2.39,0,3.58-1.1,3.58-3.29c0-1.6-0.03-3.99-0.12-7.19
					s-0.13-5.59-0.13-7.19c0-0.34,0.15-0.51,0.44-0.51c0.69,0,1.73-0.03,3.11-0.08c1.39-0.06,2.43-0.08,3.11-0.08
					c0.34,0,0.5,0.13,0.5,0.4c0,1.27-0.06,3.18-0.16,5.73c-0.12,2.56-0.16,4.47-0.16,5.75c0,0.35,0,0.88,0.01,1.6
					C211.79,305.47,211.8,306,211.8,306.35z"/>
				<path class="st3" d="M236.2,300.12c0,2.67-0.73,4.82-2.22,6.48c-1.59,1.75-3.78,2.63-6.57,2.63c-0.47,0-1.17-0.03-2.11-0.07
					c-0.93-0.06-1.63-0.08-2.1-0.08c-0.5,0-0.76,0.2-0.76,0.61c0,0.51,0.06,1.26,0.16,2.26c0.1,1,0.15,1.75,0.15,2.25
					c0,0.25-0.12,0.38-0.36,0.38c-0.71,0-1.78-0.02-3.21-0.06s-2.48-0.06-3.2-0.06c-0.34,0-0.51-0.16-0.51-0.48
					c0-1.22,0.02-3.06,0.06-5.51c0.05-2.45,0.07-4.28,0.07-5.51c0-3.46-0.16-7.09-0.48-10.9l-0.01-0.23
					c-0.02-0.21,0.15-0.34,0.52-0.38c0.91-0.11,2.92-0.17,6.02-0.17c1.83,0,3.58,0.02,5.26,0.07c2.76,0.08,4.99,0.9,6.68,2.46
					C235.33,295.42,236.2,297.53,236.2,300.12z M229.22,300.39c0-2.57-1.33-3.85-3.98-3.85c-1.87,0-2.85,0.1-2.94,0.3
					c-0.08,0.14-0.12,1.42-0.12,3.82c0,0.34,0.01,0.85,0.03,1.51c0.03,0.67,0.05,1.17,0.05,1.51c0,0.22,1.05,0.33,3.15,0.33
					C227.95,304.01,229.22,302.8,229.22,300.39z"/>
				<path class="st3" d="M254.66,302.26c0,1.3,0.03,3.25,0.1,5.86c0.07,2.61,0.1,4.57,0.1,5.86c0,0.22-0.06,0.36-0.16,0.41
					c-0.02,0.01-0.17,0.03-0.45,0.07c-0.76,0.09-1.77,0.13-3.04,0.13c-1.7,0-2.79-0.04-3.25-0.13c-0.34-0.07-0.5-0.24-0.5-0.51
					c0,0.18,0.05-0.79,0.15-2.91c0.21-4.46,0.31-7.39,0.31-8.79c0-1.18-0.03-2.95-0.12-5.3c-0.08-2.36-0.13-4.12-0.13-5.3
					c0-0.24,0.14-0.36,0.41-0.36c0.36,0,0.9,0.02,1.63,0.05c0.72,0.03,1.27,0.05,1.63,0.05c0.36,0,0.9-0.02,1.61-0.05
					c0.7-0.03,1.24-0.05,1.6-0.05c0.34,0,0.5,0.12,0.5,0.36c0,1.18-0.07,2.95-0.2,5.3C254.72,299.31,254.66,301.08,254.66,302.26z"
					/>
				<path class="st3" d="M275.26,296.34c0,0.22-0.13,0.33-0.38,0.33c-0.44,0-2.2-0.08-5.27-0.25c-0.07,2.79-0.1,4.73-0.1,5.83
					c0,1.3,0.06,3.25,0.17,5.86c0.1,2.61,0.16,4.57,0.16,5.86c0,0.21-0.06,0.34-0.16,0.4c-0.04,0.02-0.2,0.05-0.49,0.08
					c-0.7,0.09-1.73,0.13-3.08,0.13c-1.5,0-2.55-0.04-3.16-0.13c-0.33-0.06-0.49-0.23-0.49-0.51c0-1.3,0.06-3.25,0.17-5.85
					c0.12-2.6,0.17-4.55,0.17-5.85c0-0.86-0.05-2.78-0.14-5.75c-2.33,0.22-4.2,0.33-5.59,0.33c-0.19,0-0.28-0.06-0.28-0.17
					c0-0.14,0.08-0.57,0.24-1.27c0.19-0.77,0.29-1.24,0.31-1.4c0.04-0.52,0.08-1.04,0.13-1.55c0.08-0.83,0.22-1.24,0.42-1.24
					c0.02,0,0.1,0.01,0.24,0.02c1.89,0.23,4.68,0.35,8.37,0.35c1.05,0,2.99-0.1,5.81-0.31c1.52-0.11,2.29-0.17,2.3-0.17
					c0.23,0,0.36,0.02,0.4,0.04c0.03,0.03,0.06,0.14,0.07,0.32c0,0.3-0.01,0.71-0.03,1.24c-0.02,0.58-0.03,1-0.03,1.24
					c0,0.28,0.03,0.68,0.12,1.22C275.22,295.68,275.26,296.08,275.26,296.34z"/>
				<path class="st3" d="M300.21,314.05c0,0.2-0.15,0.34-0.44,0.41c-0.35,0.09-1.43,0.13-3.25,0.13c-1.67,0-2.74-0.04-3.22-0.13
					c-0.4-0.08-0.64-0.32-0.75-0.74c-0.4-1.59-0.71-2.43-0.93-2.54c-0.19-0.08-1.75-0.12-4.69-0.12c-1.98,0-3.03,0.05-3.16,0.15
					c-0.2,0.18-0.42,0.77-0.66,1.77c-0.22,0.91-0.49,1.41-0.8,1.49c-0.4,0.09-1.73,0.13-3.99,0.13c-1.78,0-2.68-0.16-2.68-0.48
					c0-0.29,1.32-3.81,3.95-10.56c2.86-7.3,4.41-11.32,4.65-12.04c0.14-0.42,0.3-0.63,0.49-0.63c0.31,0,0.8,0.03,1.46,0.08
					c0.66,0.06,1.15,0.08,1.48,0.08c0.31,0,0.78-0.02,1.39-0.06c0.62-0.03,1.07-0.06,1.38-0.06c0.22,0,0.43,0.18,0.62,0.55
					c0.57,1.16,2.24,5.12,5,11.9C298.82,310.2,300.21,313.75,300.21,314.05z M287.8,299c-0.24,0.48-0.65,1.54-1.24,3.16
					c-0.63,1.72-0.94,2.73-0.94,3.02c0,0.2,0.35,0.31,1.05,0.33c0.36,0.02,0.96,0.03,1.78,0.03c0.77,0,1.19-0.09,1.27-0.26
					c0.02-0.06,0.04-0.13,0.04-0.23c0-0.36-0.27-1.37-0.8-3.01C288.43,300.46,288.05,299.44,287.8,299z"/>
				<path class="st3" d="M318.06,314.75c-1,0-2.31-0.02-3.92-0.07c-2.1-0.04-3.41-0.07-3.92-0.08l-5.22-0.07
					c-0.52,0.01-1.28-0.01-2.26-0.07c-0.34-0.06-0.5-0.23-0.5-0.51c0-1.2,0.01-3,0.06-5.39c0.03-2.4,0.06-4.2,0.06-5.4
					c0-1.28-0.03-3.19-0.12-5.74s-0.13-4.47-0.13-5.74c0-0.24,0.17-0.36,0.52-0.36c0.35,0,0.87,0.02,1.57,0.05
					c0.69,0.03,1.2,0.05,1.54,0.05c0.38,0,0.96-0.02,1.71-0.06c0.76-0.03,1.33-0.06,1.71-0.06c0.17,0,0.26,0.1,0.24,0.31l-0.01,0.21
					c-0.14,2.07-0.3,5.18-0.48,9.33l-0.01,4.36c0,1.41,0,2.44,0.01,3.09c0.01,0.13,0.02,0.26,0.03,0.4s0.1,0.21,0.27,0.25
					c0.01,0,0.16,0,0.45,0c1.05,0,2.61-0.05,4.71-0.16c2.09-0.1,3.66-0.15,4.71-0.15c0.31,0,0.48,0.13,0.48,0.38
					c0,1.88-0.15,3.51-0.44,4.87c-0.06,0.29-0.17,0.46-0.36,0.51C318.73,314.73,318.48,314.75,318.06,314.75z"/>
				<path class="st3" d="M328.69,302.26c0,1.3,0.04,3.25,0.1,5.86c0.07,2.61,0.1,4.57,0.1,5.86c0,0.22-0.06,0.36-0.16,0.41
					c-0.02,0.01-0.17,0.03-0.45,0.07c-0.76,0.09-1.77,0.13-3.04,0.13c-1.7,0-2.79-0.04-3.25-0.13c-0.34-0.07-0.5-0.24-0.5-0.51
					c0,0.18,0.05-0.79,0.15-2.91c0.21-4.46,0.31-7.39,0.31-8.79c0-1.18-0.03-2.95-0.12-5.3s-0.13-4.12-0.13-5.3
					c0-0.24,0.14-0.36,0.41-0.36c0.36,0,0.9,0.02,1.63,0.05c0.72,0.03,1.27,0.05,1.63,0.05s0.9-0.02,1.61-0.05
					c0.7-0.03,1.24-0.05,1.6-0.05c0.34,0,0.5,0.12,0.5,0.36c0,1.18-0.07,2.95-0.2,5.3C328.74,299.31,328.69,301.08,328.69,302.26z"
					/>
				<path class="st3" d="M355.32,314.05c0,0.2-0.14,0.34-0.43,0.41c-0.35,0.09-1.43,0.13-3.25,0.13c-1.67,0-2.74-0.04-3.22-0.13
					c-0.4-0.08-0.65-0.32-0.76-0.74c-0.4-1.59-0.7-2.43-0.92-2.54c-0.19-0.08-1.75-0.12-4.69-0.12c-1.98,0-3.04,0.05-3.17,0.15
					c-0.2,0.18-0.42,0.77-0.66,1.77c-0.22,0.91-0.49,1.41-0.8,1.49c-0.4,0.09-1.73,0.13-3.99,0.13c-1.78,0-2.67-0.16-2.67-0.48
					c0-0.29,1.32-3.81,3.95-10.56c2.86-7.3,4.41-11.32,4.65-12.04c0.14-0.42,0.3-0.63,0.49-0.63c0.31,0,0.79,0.03,1.46,0.08
					c0.65,0.06,1.15,0.08,1.48,0.08c0.31,0,0.78-0.02,1.39-0.06c0.62-0.03,1.07-0.06,1.38-0.06c0.22,0,0.42,0.18,0.61,0.55
					c0.57,1.16,2.24,5.12,5,11.9C353.93,310.2,355.32,313.75,355.32,314.05z M342.93,299c-0.24,0.48-0.66,1.54-1.25,3.16
					c-0.63,1.72-0.94,2.73-0.94,3.02c0,0.2,0.35,0.31,1.05,0.33c0.36,0.02,0.96,0.03,1.78,0.03c0.77,0,1.2-0.09,1.28-0.26
					c0.02-0.06,0.03-0.13,0.03-0.23c0-0.36-0.27-1.37-0.8-3.01C343.56,300.46,343.17,299.44,342.93,299z"/>
			</g>
			<g>
				<g>
					<g>
						<g>
							<path class="st4" d="M105.8,305.09H9.13c-0.83,0-1.49-0.63-1.49-1.41s0.66-1.41,1.49-1.41h96.66c0.83,0,1.49,0.63,1.49,1.41
								S106.63,305.09,105.8,305.09z"/>
						</g>
					</g>
				</g>
				<g>
					<g>
						<g>
							<path class="st4" d="M460.46,305.09H363.8c-0.83,0-1.49-0.63-1.49-1.41s0.66-1.41,1.49-1.41h96.66
								c0.83,0,1.49,0.63,1.49,1.41S461.29,305.09,460.46,305.09z"/>
						</g>
					</g>
				</g>
			</g>
		</g>
		<g>
			<g>
				<g>
					<path class="st5" d="M148.43,263.69l10.33-54.01c0.35-1.86,2.26-3.37,4.27-3.37h45.83c9.42,0,15.7,7.09,14.02,15.84
						l-2.64,13.81c-1.15,6-5.77,11.2-11.59,13.87c-0.42,0.2-0.64,0.64-0.44,0.97l7.56,12.42c0.99,1.67-0.26,3.68-2.29,3.68
						c-6.31,0-10.23,0.19-12.8,0.15c-4.41,0.07-5.87-0.11-6.67-1.62l-6.9-12.74c-0.3-0.56-0.91-0.89-1.63-0.89l-14.67,0.02
						c-0.4,0-0.78,0.3-0.85,0.68l-2.13,11.2c-0.37,1.86-2.27,3.36-4.28,3.36h-12.12C149.41,267.06,148.07,265.56,148.43,263.69z
						 M173.13,235.92c-0.07,0.38,0.2,0.68,0.59,0.68h23.71c1.8,0,3.49-1.34,3.81-3l1.74-9.09c0.31-1.66-0.86-3-2.66-3h-23.72
						c-0.4,0-0.77,0.3-0.84,0.67L173.13,235.92z"/>
					<path class="st6" d="M199.23,268.48c-3.38,0-5.43-0.31-6.55-2.41l-6.9-12.73l-14.45-0.1l-2.04,10.71
						c-0.51,2.54-3.03,4.53-5.75,4.53h-12.12c-1.4,0-2.69-0.55-3.53-1.5c-0.84-0.95-1.17-2.24-0.92-3.54l10.33-54.01
						c0.48-2.53,3-4.53,5.74-4.53h45.83c5.01,0,9.39,1.83,12.31,5.15c2.94,3.32,4.06,7.7,3.17,12.36l-2.64,13.8
						c-1.15,6.02-5.64,11.55-11.78,14.59l7.13,11.71c0.73,1.24,0.72,2.69-0.01,3.88c-0.75,1.2-2.08,1.91-3.57,1.91
						c-3.46,0-6.2,0.06-8.4,0.1c-1.82,0.03-3.23,0.05-4.43,0.05C200.15,268.47,199.68,268.48,199.23,268.48z M163.03,207.73
						c-1.29,0-2.58,1.01-2.8,2.21l-10.33,54.01c-0.09,0.48,0,0.91,0.28,1.22c0.27,0.31,0.71,0.48,1.24,0.48h12.12
						c1.28,0,2.58-1.01,2.81-2.22l2.13-11.18c0.2-1.05,1.19-1.84,2.32-1.84l14.67-0.02c1.27,0,2.4,0.63,2.96,1.66l6.9,12.74
						c0.35,0.66,0.94,0.92,5.32,0.85c1.2,0.05,2.59-0.02,4.36-0.05c2.22-0.05,4.98-0.1,8.47-0.1c0.61,0,0.9-0.36,0.99-0.52
						c0.09-0.15,0.28-0.57-0.01-1.06l-7.55-12.4c-0.29-0.48-0.35-1.04-0.17-1.56c0.19-0.59,0.64-1.08,1.25-1.37
						c5.63-2.58,9.76-7.51,10.79-12.86l2.64-13.8c0.73-3.82-0.16-7.38-2.52-10.05c-2.36-2.67-5.92-4.14-10.03-4.14H163.03z
						 M197.43,238.01h-23.71c-0.63,0-1.22-0.25-1.61-0.7c-0.4-0.44-0.56-1.04-0.45-1.63v-0.01l2.64-13.73
						c0.2-1.04,1.19-1.83,2.31-1.83h23.72c1.32,0,2.47,0.49,3.27,1.38c0.78,0.88,1.1,2.07,0.86,3.28l-1.74,9.09
						C202.25,236.18,199.94,238.01,197.43,238.01z M174.6,236.16C174.6,236.16,174.6,236.16,174.6,236.16L174.6,236.16z
						 M174.79,235.19h22.65c1.07,0,2.15-0.84,2.34-1.84l1.74-9.08c0.07-0.38,0-0.73-0.22-0.97c-0.21-0.24-0.55-0.37-0.97-0.37
						h-23.18L174.79,235.19z"/>
				</g>
				<g>
					<path class="st5" d="M268.59,267.06c-2.01,0-3.36-1.51-2.99-3.37l1.75-9.15c0.35-1.86,2.26-3.37,4.27-3.37h40.33
						c1.2,0,2.36-0.9,2.57-2.02l0.55-2.87c0.21-1.12-0.59-2.03-1.78-2.03h-29.01c-9.42,0-15.7-7.08-14.02-15.83l1.18-6.19
						c1.67-8.75,10.67-15.83,20.09-15.83h42.88c2.01,0,3.35,1.5,2.99,3.38l-1.67,8.72c-0.36,1.86-2.27,3.37-4.28,3.37H292.2
						c-1.19,0-2.34,0.9-2.57,2.02l-0.72,3.82c-0.21,1.12,0.58,2.02,1.8,2.02h28.99c9.42,0,15.7,7.09,14.04,15.84l-1.1,5.67
						c-1.67,8.75-10.66,15.83-20.08,15.83h-1.88v-0.01H268.59z"/>
					<path class="st6" d="M312.56,268.48l-43.96-0.01c-1.41,0-2.71-0.55-3.55-1.51c-0.84-0.95-1.17-2.24-0.91-3.54l1.75-9.14
						c0.48-2.54,3-4.53,5.74-4.53h40.33c0.48,0,1.01-0.42,1.1-0.86l0.55-2.87l-0.31-0.37h-29.01c-5.01,0-9.39-1.83-12.33-5.15
						c-2.93-3.32-4.05-7.7-3.16-12.35l1.18-6.18c1.78-9.37,11.46-16.99,21.56-16.99h42.88c1.4,0,2.69,0.55,3.53,1.5
						c0.85,0.96,1.18,2.22,0.92,3.54l-1.67,8.72c-0.49,2.54-3.02,4.53-5.75,4.53H292.2c-0.48,0-1.01,0.42-1.1,0.87l-0.72,3.81
						l0.33,0.36h28.99c5,0,9.38,1.83,12.31,5.14c2.94,3.32,4.08,7.7,3.2,12.35l-1.1,5.68C332.33,260.85,322.66,268.48,312.56,268.48
						z M271.63,252.58c-1.29,0-2.58,1.01-2.8,2.21l-1.75,9.15c-0.09,0.48,0,0.91,0.27,1.22c0.28,0.31,0.72,0.49,1.25,0.49
						l43.96,0.01c8.72,0,17.07-6.58,18.61-14.67l1.1-5.68c0.72-3.81-0.19-7.38-2.54-10.04c-2.37-2.66-5.92-4.13-10.03-4.13H290.7
						c-1.01,0-1.96-0.4-2.58-1.1c-0.62-0.69-0.86-1.64-0.69-2.58l0.72-3.82c0.35-1.79,2.12-3.18,4.03-3.18h39.24
						c1.29,0,2.58-1.01,2.81-2.21l1.67-8.72c0.09-0.48,0-0.92-0.28-1.23c-0.27-0.31-0.71-0.48-1.24-0.48h-42.88
						c-8.72,0-17.08,6.58-18.62,14.67l-1.18,6.19c-0.73,3.81,0.16,7.38,2.52,10.04c2.36,2.67,5.91,4.14,10.03,4.14h29.01
						c1,0,1.94,0.4,2.55,1.09c0.62,0.7,0.87,1.64,0.7,2.59l-0.55,2.87c-0.34,1.78-2.11,3.18-4.03,3.18H271.63z"/>
				</g>
				<g>
					<path class="st5" d="M451.19,235.96c-1.68,8.75-10.67,15.84-20.08,15.84l-29.36,0.02c-0.41,0-0.79,0.31-0.86,0.68l-2.15,11.2
						c-0.35,1.86-2.26,3.37-4.27,3.37h-12.1c-2.01,0-3.35-1.51-2.99-3.37l10.33-54c0.35-1.86,2.26-3.36,4.27-3.36h45.82
						c9.41,0,15.7,7.08,14.03,15.83L451.19,235.96z M431.26,221.52h-23.71c-0.4,0-0.79,0.31-0.86,0.68l-2.61,13.73
						c-0.07,0.38,0.19,0.68,0.58,0.68h23.72c1.78,0,3.48-1.34,3.8-3l1.75-9.09C434.24,222.87,433.05,221.52,431.26,221.52z"/>
					<path class="st6" d="M394.47,268.48h-12.1c-1.4,0-2.69-0.55-3.53-1.5c-0.84-0.95-1.18-2.24-0.92-3.54l10.33-54
						c0.48-2.53,3-4.52,5.74-4.52h45.82c5,0,9.39,1.83,12.31,5.15c2.94,3.32,4.07,7.7,3.18,12.34l-2.64,13.8
						c-1.8,9.37-11.46,16.99-21.55,16.99l-28.85,0.02l-2.05,10.72C399.73,266.48,397.21,268.48,394.47,268.48z M393.98,207.74
						c-1.29,0-2.58,1.01-2.8,2.2l-10.33,54.01c-0.09,0.48,0,0.91,0.28,1.22c0.27,0.31,0.71,0.48,1.24,0.48h12.1
						c1.29,0,2.58-1.01,2.8-2.21l2.15-11.21c0.2-1.04,1.2-1.83,2.33-1.83l29.36-0.02c8.71,0,17.06-6.59,18.61-14.68l2.64-13.79
						c0.72-3.81-0.17-7.37-2.53-10.04s-5.92-4.14-10.03-4.14H393.98z M428.38,238.02h-23.72c-0.63,0-1.21-0.25-1.6-0.69
						c-0.4-0.44-0.57-1.04-0.45-1.64l2.61-13.74c0.2-1.03,1.22-1.84,2.33-1.84h23.71c0,0,0,0,0.01,0c1.28,0,2.46,0.5,3.24,1.37
						c0.78,0.88,1.11,2.08,0.89,3.29l-1.75,9.1C433.19,236.2,430.88,238.02,428.38,238.02z M405.74,235.2h22.65
						c1.05,0,2.15-0.86,2.33-1.84l1.75-9.08c0.07-0.37-0.01-0.73-0.23-0.97c-0.21-0.24-0.55-0.37-0.96-0.37c0,0,0,0-0.01,0h-23.2
						L405.74,235.2z"/>
				</g>
			</g>
			<g>
				<g>
					<g>
						<g>
							<path class="st5" d="M65.93,262.02l-0.91,1.32l-2.52,3.37c-0.73,0.98-1.95,1.59-3.14,1.59H43.23c-1.14,0-2.07-0.56-2.5-1.46
								c-0.41-0.9-0.22-2.01,0.51-2.95l17.27-24.7L65.93,262.02z"/>
						</g>
					</g>
					<g>
						<g>
							<path class="st5" d="M120.61,266.85c-0.67,0.9-1.68,1.46-2.68,1.46h-15.3c-1.01,0-1.87-0.59-2.21-1.51l-1.74-5.35
								l-4.91-15.08l-0.06-0.17l-12.66-38.9c2.72-2.17,6.9-2.11,6.9-2.11c0.02-0.02,0.04-0.08,0.04-0.08c0.95-0.02,1.95-0.02,3.06,0
								h1.64c1.4,0,2.94,0.04,4.71,0.04c0,0,3.35-0.1,4.59,3.24l19.17,55.51C121.49,264.84,121.26,265.95,120.61,266.85z"/>
						</g>
					</g>
					<g>
						<g>
							<path class="st3" d="M98.68,261.45H66.34l-0.41,0.57l-7.43-22.82l21.53-30.81c0.32-0.42,0.65-0.79,1.01-1.09l7.2,22.57
								l-11.44,16.5h16.96L98.68,261.45z"/>
						</g>
					</g>
				</g>
				<g>
					<g>
						<g>
							<g>
								<path class="st1" d="M65.53,263.71c-0.66,0-1.31-0.12-1.47-0.76l-6.09-22.99c-0.2-0.75,0.28-1.52,1.08-1.71
									c0.79-0.22,0.97,0.19,1.16,0.94l5.71,22.35c0.2,0.75,0.8,1.88,0,2.06C65.82,263.64,65.65,263.71,65.53,263.71z"/>
							</g>
						</g>
						<g>
							<g>
								<path class="st1" d="M98.44,262.22c-0.64,0-0.94-0.63-1.14-1.25l-16.81-53.23c-0.23-0.74-0.4-1.47,0.4-1.69
									c0.79-0.21,1.63,0.2,1.87,0.94l16.89,53.55c0.23,0.74,0.02,1.39-0.77,1.62C98.73,262.19,98.58,262.22,98.44,262.22z"/>
							</g>
						</g>
					</g>
					<g>
						<g>
							<g>
								<path class="st6" d="M59.37,269.44H43.22c-1.6,0-2.96-0.82-3.58-2.13c-0.57-1.27-0.33-2.81,0.62-4.04l38.79-55.51
									c2.3-2.95,5.19-3.63,8.83-3.76l9.54,0.02c1.47-0.05,4.49,0.74,5.7,3.99l19.17,55.56c0.44,1.24,0.19,2.71-0.7,3.92
									c-0.9,1.22-2.26,1.95-3.66,1.95h-15.28c-1.59,0-2.92-0.95-3.41-2.41l-1.45-4.44H66.99l-0.96,1.39l-2.54,3.39
									C62.5,268.64,60.93,269.44,59.37,269.44z M86.76,206.32c-2.48,0.2-4.28,0.83-5.77,2.73l-38.79,55.52
									c-0.47,0.6-0.61,1.31-0.37,1.84c0.22,0.47,0.75,0.77,1.39,0.77h16.15c0.79,0,1.64-0.44,2.17-1.13l4.14-5.73h33.89l1.96,6.04
									c0.17,0.52,0.58,0.82,1.12,0.82h15.28c0.61,0,1.26-0.37,1.7-0.97c0.44-0.61,0.59-1.37,0.4-1.93l-19.17-55.54
									c-0.89-2.36-3.08-2.45-3.41-2.45c0,0,0,0-0.01,0L86.76,206.32z M95.44,247.21l-20.86,0.28l14.55-20.3L95.44,247.21z
									 M79.03,245.24h13.13l-4.09-12.89L79.03,245.24z"/>
							</g>
						</g>
					</g>
				</g>
			</g>
		</g>
	</g>
</g>
</svg>
