<svg width="24" height="24" viewBox="0 0 24 24" fill="none" xmlns="http://www.w3.org/2000/svg">
<g id="delivered-sent">
<path id="Vector" d="M17 21C18.1046 21 19 20.1046 19 19C19 17.8954 18.1046 17 17 17C15.8954 17 15 17.8954 15 19C15 20.1046 15.8954 21 17 21Z" stroke="#29CC79" stroke-width="1.5"/>
<path id="Vector_2" d="M7 21C8.10457 21 9 20.1046 9 19C9 17.8954 8.10457 17 7 17C5.89543 17 5 17.8954 5 19C5 20.1046 5.89543 21 7 21Z" stroke="#29CC79" stroke-width="1.5"/>
<path id="Vector_3" d="M2 9V13.947C2 16.329 2 17.52 2.73223 18.26C3.2191 18.752 3.90328 18.9169 5 18.9722M12.4271 5C13.3404 5.2999 14.0564 6.02354 14.3532 6.94653C14.5 7.40322 14.5 7.96752 14.5 9.09613C14.5 9.84853 14.5 10.2247 14.5979 10.5292C14.7957 11.1445 15.2731 11.6269 15.882 11.8269C16.1832 11.9258 16.5555 11.9258 17.3 11.9258H22V13.947C22 16.329 22 17.52 21.2678 18.26C20.7809 18.752 20.0967 18.9169 19 18.9722M9 19H15" stroke="#29CC79" stroke-width="1.5"/>
<path id="Vector_4" d="M14.5 7H16.3212C17.7766 7 18.5042 7 19.0964 7.35371C19.6886 7.70742 20.0336 8.34811 20.7236 9.6295L22 12" stroke="#29CC79" stroke-width="1.5"/>
<path id="Vector_5" d="M7.32653 8L8.81309 6.82582C9.60436 6.20083 10 5.88833 10 5.5M10 5.5C10 5.11168 9.60436 4.79917 8.81309 4.17417L7.32653 3M10 5.5H2" stroke="#29CC79" stroke-width="1.5"/>
</g>
</svg>
