<svg width="18" height="18" viewBox="0 0 18 18" fill="none" xmlns="http://www.w3.org/2000/svg">
<g id="Setting">
<path id="Path_33946" fill-rule="evenodd" clip-rule="evenodd" d="M16.3387 5.35305L15.82 4.45298C15.3812 3.69138 14.4087 3.42864 13.6461 3.86564V3.86564C13.283 4.07949 12.8499 4.14017 12.4421 4.03428C12.0342 3.92839 11.6853 3.66464 11.4722 3.30118C11.3351 3.07016 11.2614 2.80704 11.2586 2.53841V2.53841C11.271 2.10773 11.1085 1.69038 10.8082 1.38143C10.5078 1.07249 10.0952 0.89826 9.66438 0.898438H8.61938C8.19727 0.898433 7.79256 1.06664 7.4948 1.36583C7.19704 1.66502 7.03078 2.07053 7.0328 2.49264V2.49264C7.02029 3.36415 6.3102 4.06405 5.4386 4.06396C5.16997 4.06117 4.90684 3.98749 4.67583 3.85038V3.85038C3.91318 3.41339 2.94072 3.67612 2.50191 4.43772L1.94509 5.35305C1.5068 6.1137 1.76596 7.08555 2.5248 7.52697V7.52697C3.01805 7.81174 3.32191 8.33803 3.32191 8.90759C3.32191 9.47715 3.01805 10.0034 2.5248 10.2882V10.2882C1.76693 10.7267 1.50749 11.6961 1.94509 12.4545V12.4545L2.4714 13.3622C2.677 13.7332 3.02197 14.007 3.42996 14.1229C3.83795 14.2389 4.27533 14.1875 4.64531 13.9801V13.9801C5.00903 13.7678 5.44245 13.7097 5.84925 13.8185C6.25604 13.9274 6.60249 14.1942 6.8116 14.5598C6.94871 14.7908 7.02239 15.0539 7.02518 15.3225V15.3225C7.02518 16.203 7.73893 16.9167 8.61938 16.9167H9.66438C10.5419 16.9168 11.2544 16.2076 11.2586 15.3302V15.3302C11.2565 14.9067 11.4239 14.5001 11.7233 14.2006C12.0227 13.9012 12.4294 13.7339 12.8528 13.736C13.1208 13.7431 13.3828 13.8165 13.6156 13.9495V13.9495C14.3762 14.3878 15.3481 14.1287 15.7895 13.3698V13.3698L16.3387 12.4545C16.5513 12.0896 16.6096 11.655 16.5008 11.247C16.392 10.839 16.125 10.4912 15.759 10.2806V10.2806C15.3929 10.07 15.1259 9.72219 15.0171 9.31416C14.9083 8.90613 14.9667 8.47156 15.1793 8.10668C15.3175 7.86532 15.5176 7.66521 15.759 7.52697V7.52697C16.5133 7.08579 16.7718 6.11962 16.3387 5.36068V5.36068V5.35305Z" stroke="black" stroke-width="1.5" stroke-linecap="round" stroke-linejoin="round"/>
<ellipse id="Ellipse_737" cx="9.14553" cy="8.90773" rx="2.1968" ry="2.1968" stroke="black" stroke-width="1.5" stroke-linecap="round" stroke-linejoin="round"/>
</g>
</svg>
